<svg width="295" height="44" viewBox="0 0 295 44" fill="none" xmlns="http://www.w3.org/2000/svg">
<path d="M49.1281 22.0001L25 38.8897L0.871896 22.0001L25 5.11033L49.1281 22.0001Z" stroke="white"/>
<path d="M36 22.0001L61 39.5L86 22.0001L61 4.5L36 22.0001Z" fill="white"/>
<path d="M110.748 35L102.576 9.8H109.92L116.796 31.616H113.088L120.324 9.8H126.876L133.716 31.616H130.152L137.244 9.8H144.048L135.876 35H128.244L122.412 16.46H124.464L118.38 35H110.748ZM153.154 19.556H164.854V24.884H153.154V19.556ZM153.658 29.492H166.834V35H146.602V9.8H166.366V15.308H153.658V29.492ZM170.79 35V9.8H183.678C186.99 9.8 189.462 10.412 191.094 11.636C192.726 12.836 193.542 14.42 193.542 16.388C193.542 17.684 193.194 18.824 192.498 19.808C191.826 20.768 190.866 21.536 189.618 22.112C188.394 22.664 186.93 22.94 185.226 22.94L185.946 21.212C187.722 21.212 189.27 21.488 190.59 22.04C191.91 22.568 192.93 23.348 193.65 24.38C194.394 25.388 194.766 26.624 194.766 28.088C194.766 30.272 193.878 31.976 192.102 33.2C190.35 34.4 187.782 35 184.398 35H170.79ZM177.846 29.852H183.822C185.046 29.852 185.97 29.648 186.594 29.24C187.242 28.808 187.566 28.16 187.566 27.296C187.566 26.432 187.242 25.796 186.594 25.388C185.97 24.956 185.046 24.74 183.822 24.74H177.342V19.808H182.742C183.942 19.808 184.842 19.604 185.442 19.196C186.042 18.788 186.342 18.176 186.342 17.36C186.342 16.544 186.042 15.944 185.442 15.56C184.842 15.152 183.942 14.948 182.742 14.948H177.846V29.852ZM198.458 35V9.8H204.326L214.766 26.936H211.67L221.822 9.8H227.69L227.762 35H221.21L221.138 19.772H222.254L214.658 32.516H211.49L203.678 19.772H205.046V35H198.458ZM232.805 35V9.8H239.933V35H232.805ZM245.004 35V9.8H250.872L264.768 26.576H261.996V9.8H268.98V35H263.112L249.216 18.224H251.988V35H245.004ZM279.372 35V15.452H271.632V9.8H294.204V15.452H286.5V35H279.372Z" fill="white"/>
</svg>
