<svg width="1007" height="715" viewBox="0 0 1007 715" fill="none" xmlns="http://www.w3.org/2000/svg">
<path d="M92.003 4.4519H124.686" stroke="white" stroke-width="7.4328" stroke-miterlimit="10" stroke-linecap="round"/>
<path d="M817.34 4H715.391C708.521 4 702.951 9.569 702.951 16.44V126.814C702.951 133.685 708.521 139.254 715.391 139.254H817.34C824.21 139.254 829.78 133.685 829.78 126.814V16.44C829.78 9.569 824.21 4 817.34 4Z" fill="url(#paint0_linear_154_466)"/>
<path d="M718.4 105.665H751.082" stroke="white" stroke-width="7.4328" stroke-miterlimit="10" stroke-linecap="round"/>
<path opacity="0.4" d="M718.4 120.918H785.94" stroke="white" stroke-width="7.4328" stroke-miterlimit="10" stroke-linecap="round"/>
<path d="M719.123 42.3459H736.025C737.267 42.3459 738.487 42.671 739.564 43.289C740.641 43.907 741.538 44.797 742.165 45.869L758.527 73.853C759.17 74.952 760.097 75.859 761.211 76.479C762.324 77.098 763.584 77.4069 764.858 77.3719C766.131 77.3379 767.373 76.962 768.452 76.284C769.53 75.606 770.407 74.651 770.991 73.518L781.106 53.8719C781.698 52.7209 782.593 51.755 783.69 51.075C784.79 50.396 786.06 50.029 787.35 50.015L817.04 49.697" stroke="white" stroke-width="4" stroke-miterlimit="10" stroke-linecap="round"/>
<path opacity="0.4" d="M719.123 72.447H727.435C729.313 72.447 731.115 71.705 732.447 70.381L770.871 32.221C772.204 30.897 774.005 30.155 775.883 30.155H787.13C788.74 30.155 790.3 30.699 791.56 31.699C792.82 32.698 793.7 34.095 794.06 35.66L799.97 61.109C800.33 62.674 801.21 64.07 802.47 65.07C803.73 66.07 805.29 66.614 806.89 66.614H817.04" stroke="white" stroke-width="4" stroke-miterlimit="10" stroke-linecap="round"/>
<path d="M962.63 677.385C962.63 677.385 958.9 714.975 894.13 714.975H818.19L918.93 636.651L962.63 677.385Z" fill="#5661AE"/>
<path d="M811.94 241.75L990.27 281.263C991.86 281.603 993.37 282.23 994.73 283.114C999.66 286.369 1008.47 295.886 1006.78 321.909C1004.52 356.596 962.63 677.385 962.63 677.385L791.41 529.152L811.94 241.75Z" fill="#5661AE"/>
<path d="M792.88 240.731L972.51 280.533C972.51 280.533 987.88 286.13 987.72 320.89C987.56 355.65 943.57 676.366 943.57 676.366L772.346 528.132L792.88 240.731Z" fill="url(#paint1_linear_154_466)"/>
<path d="M795.8 259.054C795.8 259.054 798.96 304.841 800.35 312.097C802.79 324.807 858.63 298.106 854.53 286.789C852.41 280.917 842.74 224.969 842.74 224.969L795.8 259.054Z" fill="#BC775C"/>
<path d="M800.68 310.338L795.9 263.462H824.2L800.68 310.338Z" fill="#93523E" stroke="#93523E"/>
<path d="M866.78 215.155C868.94 192.102 842.79 197.073 838.32 198.113C833.85 199.153 826.85 164.991 826.85 164.991C826.85 164.991 775.258 155.804 764.205 164.97C764.205 164.97 757.271 208.027 756.153 235.602C755.035 263.177 762.769 275.526 772.878 276.47C786.65 278.937 802.94 276.158 813.35 270.023C831.89 259.092 839.81 239.322 839.81 239.322C840.14 239.17 840.32 239.091 840.32 239.091C840.32 239.091 864.75 236.927 866.78 215.155Z" fill="#BC775C"/>
<path d="M762.739 234.731C767.185 231.914 778.427 232.16 782.992 233.053C791.69 234.757 794.36 235.887 795.34 237.907C796.32 239.926 796.51 242.16 792.88 240.731C789.24 239.302 781.638 236.692 774.869 236.876C771.724 237.199 768.609 237.767 765.552 238.576C762.024 239.634 758.73 237.271 762.739 234.731Z" fill="#493212"/>
<path d="M759.594 206.594C759.594 206.594 762.527 180.798 762.899 173.656C763.437 163.382 770.945 166.688 776.322 173.894C784.06 184.594 798.82 183.917 811.23 180.56C822.12 177.905 822.28 178.53 823.27 190.031C824.27 201.532 827.98 222.889 831.47 217.778C835.81 211.088 838.77 204.824 846.4 200.752C856.77 195.219 867.41 205.427 864.91 213.31C862.41 221.195 856.56 230.271 843.5 237.725L849.89 267.335C882.26 222.434 894.45 160.769 850.55 146.491C834.15 141.156 817.12 106.585 785.38 114.45C762.899 120.022 762.899 138.045 761.301 153.717C731.093 155.024 759.594 206.594 759.594 206.594Z" fill="#493212"/>
<path d="M798.41 215.087C799.03 211.819 797.79 208.841 795.65 208.435C793.51 208.03 791.27 210.351 790.66 213.62C790.04 216.888 791.27 219.866 793.41 220.271C795.55 220.676 797.79 218.355 798.41 215.087Z" fill="#080B09"/>
<path d="M768.94 209.315C769.559 206.047 768.324 203.069 766.183 202.664C764.041 202.259 761.804 204.58 761.186 207.848C760.567 211.117 761.802 214.095 763.943 214.5C766.085 214.905 768.322 212.584 768.94 209.315Z" fill="#080B09"/>
<path d="M774.972 217.778C774.972 217.778 778.805 224.68 773.553 224.934C768.531 225.005 765.689 228.034 770.873 232.16" stroke="#93523E" stroke-width="1.51544" stroke-linecap="round"/>
<path d="M771.908 237.916C775.027 238.052 781.265 238.325 785.42 238.575C785.67 238.588 785.91 238.668 786.11 238.808C786.32 238.948 786.48 239.142 786.59 239.369C786.69 239.596 786.73 239.848 786.7 240.096C786.68 240.344 786.58 240.579 786.43 240.776C782.827 244.975 774.46 252.615 770.67 239.659C770.576 239.462 770.537 239.244 770.556 239.027C770.574 238.81 770.651 238.602 770.777 238.424C770.903 238.246 771.075 238.105 771.273 238.016C771.472 237.927 771.691 237.892 771.908 237.916Z" fill="white"/>
<path d="M808.31 204.097L808.04 204.693C807.71 205.598 807.04 206.337 806.18 206.75C805.31 207.162 804.31 207.215 803.41 206.897L787.97 201.009C787.21 200.755 786.57 200.225 786.19 199.525C785.8 198.824 785.69 198.003 785.88 197.226C785.97 196.744 786.17 196.288 786.45 195.887C786.74 195.486 787.1 195.15 787.52 194.9C787.95 194.651 788.42 194.494 788.9 194.44C789.39 194.386 789.89 194.436 790.35 194.587L806.06 199.878C806.49 200 806.89 200.208 807.24 200.488C807.59 200.769 807.87 201.116 808.08 201.51C808.29 201.904 808.42 202.335 808.46 202.78C808.5 203.224 808.45 203.672 808.31 204.097Z" fill="#080B09"/>
<path d="M756.425 191.337L772.929 189.757C773.418 189.716 773.91 189.78 774.372 189.943C774.835 190.107 775.258 190.367 775.613 190.706C775.967 191.045 776.246 191.455 776.431 191.91C776.615 192.365 776.701 192.854 776.682 193.344C776.69 194.144 776.397 194.918 775.861 195.513C775.325 196.107 774.585 196.478 773.788 196.553L757.417 198.776C756.462 198.88 755.504 198.602 754.753 198.003C754.002 197.404 753.518 196.532 753.407 195.577L753.275 194.934C753.238 194.489 753.29 194.041 753.43 193.618C753.569 193.194 753.793 192.802 754.086 192.467C754.38 192.131 754.739 191.858 755.141 191.664C755.543 191.47 755.979 191.358 756.425 191.337Z" fill="#080B09"/>
<path d="M44.36 677.385C44.36 677.385 48.089 714.975 112.865 714.975H188.8L88.063 636.651L44.36 677.385Z" fill="#5661AE"/>
<path d="M195.056 241.75L16.724 281.263C15.137 281.603 13.625 282.23 12.264 283.114C7.33102 286.369 -1.47999 295.886 0.213005 321.909C2.46901 356.596 44.361 677.386 44.361 677.386L215.586 529.152L195.056 241.75Z" fill="#5661AE"/>
<path d="M214.116 240.731L34.479 280.533C34.479 280.533 19.113 286.13 19.273 320.89C19.434 355.65 63.421 676.366 63.421 676.366L234.646 528.132L214.116 240.731Z" fill="#87E6DF"/>
<path d="M291.863 406.211L309.293 430.604C311.782 434.087 314.981 437.002 318.679 439.157C322.377 441.313 326.49 442.66 330.747 443.109L444.839 455.149L446.573 483.723L307.353 492.175C299.51 492.652 291.669 491.195 284.52 487.934C277.37 484.674 271.13 479.708 266.347 473.473L229.035 424.829L291.863 406.211Z" fill="#FFCCB3"/>
<path d="M302.764 421.467C302.764 421.467 266.897 430.938 256.411 460.519L238.539 434.103L298.91 416.073L302.764 421.467Z" fill="#FF967C"/>
<path d="M215.237 314.195C215.237 314.195 250.137 324.367 259.853 336.113C267.414 345.253 280.268 383.227 290.341 401.516C292.776 405.936 296.23 406.336 293.664 410.68C283.049 428.649 273.952 454.842 256.411 460.519C197.702 451.65 215.237 314.195 215.237 314.195Z" fill="#5661AE"/>
<path d="M252.954 366.231C252.954 366.231 276.246 408.471 279.782 431.171C279.782 431.171 271.489 452.217 265.635 456.498C256.502 463.177 251.487 459.424 251.487 459.424L252.954 366.231Z" fill="#465393"/>
<path d="M131.221 228.871C163.412 228.871 189.507 202.775 189.507 170.585C189.507 138.394 163.412 112.298 131.221 112.298C99.03 112.298 72.935 138.394 72.935 170.585C72.935 202.775 99.03 228.871 131.221 228.871Z" fill="#080B09"/>
<path d="M180.605 139.51C180.605 139.51 105.381 126.228 96.556 217.445C96.556 217.445 104.092 225.549 114.939 226.435C114.939 226.435 123.748 137.927 185.01 144.766L180.605 139.51Z" fill="#87E6DF"/>
<path d="M164.657 142.986C164.657 142.986 156.006 138.496 162.525 133.319C166.642 129.886 169.921 125.558 172.111 120.665C174.173 121.808 175.723 123.69 176.45 125.932C177.177 128.174 177.026 130.608 176.027 132.743C172.686 140.988 170.596 141.451 170.596 141.451L164.657 142.986Z" fill="#87E6DF"/>
<path d="M164.219 138.024C164.219 138.024 161.837 147.475 155.301 142.32C151.013 139.102 146.048 136.905 140.783 135.897C141.421 133.628 142.897 131.687 144.912 130.464C146.927 129.242 149.331 128.83 151.638 129.311C160.43 130.668 161.361 132.597 161.361 132.597L164.219 138.024Z" fill="#87E6DF"/>
<path d="M180.893 273.037L190.102 307.3C190.102 307.3 260.405 387.066 202.055 416.073C191.799 421.172 142.783 381.988 133.58 373.301C124.376 364.614 128.192 313.297 128.192 313.297L149.325 239.999L180.893 273.037Z" fill="#FFCCB3"/>
<path d="M160.176 381.748C160.176 381.748 194.52 403.336 229.035 383.304C229.035 383.304 223.716 413.044 202.794 422.616C181.871 432.187 160.176 381.748 160.176 381.748Z" fill="url(#paint2_linear_154_466)"/>
<path d="M182.706 279.09L164.242 267.012L191.582 312.992L182.706 279.09Z" fill="#FF967C"/>
<path d="M229.444 188.722C229.444 188.722 239.211 240.11 221.757 270.068C210.374 289.605 194.737 290.156 164.242 267.012C136.281 245.79 130.582 233.104 130.582 233.104L137.417 179.681C137.417 179.681 218.251 142.378 229.444 188.722Z" fill="#FFCCB3"/>
<path d="M190.102 307.301C190.102 307.301 224.671 315.838 230.245 319.768C235.819 323.698 242.973 358.097 253.01 374.026C263.047 389.956 276.757 415.125 259.144 444.234C241.531 473.343 243.119 501.197 243.119 501.197L256.449 574.267H107.98C101.774 574.834 98.473 559.109 98.658 552.88C99.266 532.336 101.213 526.211 99.901 493.636C98.124 449.488 81.636 324.243 81.636 324.243L130.582 306.068C129.077 374.973 169.109 359.934 202.794 422.616C230.367 369.653 190.102 307.301 190.102 307.301Z" fill="#5661AE"/>
<path d="M113.859 359.934C113.859 359.934 121.124 375.076 115.387 390.544C108.936 407.935 101.837 450.313 133.28 452.983C171.82 456.256 155.641 463.243 138.193 468.598C120.744 473.952 127.994 473.517 129.108 491.862C129.901 504.919 94.8 531.428 98.033 521.309C115.38 467.017 56.429 399.931 113.859 359.934Z" fill="#465393"/>
<path d="M197.472 255.317L215.97 258.399C215.901 258.556 215.816 258.74 215.713 258.947C215.379 259.619 214.865 260.511 214.147 261.394C212.713 263.158 210.498 264.853 207.276 264.774C202.231 264.196 199.802 261.673 198.61 259.326C198.007 258.138 197.714 256.983 197.574 256.123C197.522 255.809 197.491 255.536 197.472 255.317Z" fill="#E56441" stroke="#E56441"/>
<path d="M225.682 232.463C227.754 232.362 229.313 229.804 229.163 226.75C229.013 223.697 227.212 221.303 225.14 221.405C223.068 221.506 221.51 224.064 221.659 227.118C221.809 230.172 223.61 232.565 225.682 232.463Z" fill="#080B09"/>
<path d="M195.09 234.4C197.162 234.299 198.72 231.741 198.571 228.687C198.421 225.633 196.62 223.24 194.548 223.342C192.476 223.443 190.917 226.001 191.067 229.055C191.216 232.108 193.017 234.502 195.09 234.4Z" fill="#080B09"/>
<path d="M232.189 213.807L216.63 214.825C216.364 214.82 216.109 214.719 215.912 214.54C215.715 214.362 215.589 214.118 215.558 213.854C215.591 213.377 215.721 212.912 215.939 212.487C216.158 212.062 216.46 211.686 216.827 211.381C217.195 211.076 217.621 210.849 218.079 210.713C218.537 210.577 219.018 210.535 219.492 210.59L232.357 212.007C233.378 211.957 233.465 213.744 232.189 213.807Z" fill="#080B09"/>
<path d="M179.404 215.415L200.145 215.679C200.094 215.049 199.912 214.436 199.61 213.881C199.309 213.326 198.894 212.84 198.393 212.454C197.892 212.069 197.316 211.793 196.702 211.644C196.087 211.495 195.449 211.476 194.827 211.589L179.086 214.151C178.576 214.176 178.639 215.453 179.404 215.415Z" fill="#080B09"/>
<path d="M212.624 226.013L219.278 240.748L214.64 244.989" stroke="#E56441" stroke-width="1.66686" stroke-linecap="round"/>
<path d="M210.353 196.697C199.487 196.772 194.398 194.252 183 199.615C179.403 201.307 176 203 173.937 207.148C171.727 215.49 173.144 227.078 158.441 226.756C158.441 226.756 163.197 210.926 153.094 208.903C135.938 205.468 138.696 233.227 149.325 239.999C156.548 244.601 144.139 277.799 134.908 290.002C103.334 216.216 114.292 208.784 122.501 189.524C136.45 156.794 148.672 146.83 181.693 141.417C181.693 141.417 225.443 142.598 237.042 181.089C246.957 213.994 232.076 226.609 232.076 226.609C232.076 226.609 232.538 202.124 230.116 199.615C226.93 196.314 224.346 196.6 210.353 196.697Z" fill="#080B09"/>
<path d="M741.222 594.978L617.416 616.972L641.785 714.975H721.089C721.089 714.975 758.786 633.946 741.222 594.978Z" fill="#FFCCB3"/>
<path d="M662.178 603.563C662.178 603.563 681.258 609.439 689.134 640.558C697.011 671.678 688.417 714.975 688.417 714.975H700.685C700.685 714.975 744.433 663.6 712.247 598.125L662.178 603.563Z" fill="#FF967C"/>
<path d="M920.99 564.095C920.99 564.095 930.53 635.338 916.29 669.297C904.17 698.178 885.45 714.552 862.72 714.975H688.416C688.416 714.975 688.141 621.874 614.624 605.968C614.624 605.968 856.58 538.58 920.99 564.095Z" fill="#1F2D49"/>
<path d="M924.34 585.701L766.188 590.908L767.87 579.861L798.69 576.298H924.12L924.34 585.701Z" fill="#0D1B33"/>
<path d="M801.6 306.636C800.24 312.403 799.89 291.999 797.14 292.85C784.55 296.752 748.726 307.931 741.106 311.119C731.824 315.002 731.205 330.533 730.586 341.535C730.152 349.243 741.625 457.449 742.197 530.756C742.319 546.417 726.469 564.749 724.594 573.454C724.073 575.798 723.794 578.19 723.761 580.591C723.752 582.265 724.407 583.875 725.583 585.066C726.759 586.258 728.36 586.934 730.035 586.947L918.89 588.712C918.89 588.712 927.26 589.929 925.24 580.374C923.24 569.923 922.15 559.319 921.96 548.68C920.08 472.54 919.72 345.026 918.9 338.989C917.66 329.929 927.39 322.127 916.85 317.566L858.36 294.198C858.36 294.198 847.64 302.019 846.09 302.811C816.71 317.836 801.6 306.636 801.6 306.636Z" fill="#87E6DF"/>
<path d="M813.77 314.407C813.77 314.407 807.09 338.935 810.18 362.627C813.26 386.319 801.09 418.734 798.57 444.747C796.05 470.76 808.39 504.839 806.46 526.675C804.54 548.51 811.54 588.763 811.54 588.763" stroke="#FF967C" stroke-width="3" stroke-miterlimit="10"/>
<path d="M284.404 576.819L408.211 598.814L383.841 696.817H304.537C304.537 696.817 266.84 615.788 284.404 576.819Z" fill="#FFCCB3"/>
<path d="M363.448 585.404C363.448 585.404 344.368 591.28 336.492 622.4C328.616 653.519 337.21 696.817 337.21 696.817H324.941C324.941 696.817 281.194 645.441 313.38 579.966L363.448 585.404Z" fill="#FF967C"/>
<path d="M100.966 550.545C100.966 550.545 79.026 591.726 81.636 646.03C84.116 697.605 112.332 714.975 156.938 714.975L337.21 696.817C337.21 696.817 337.485 603.715 411.002 587.81C411.002 587.81 329.149 528.229 246.354 543.198C205.717 550.545 180.186 559.485 100.966 550.545Z" fill="#1F2D49"/>
<path d="M97.882 536.779C97.882 536.779 214.637 548.977 257.669 516.823L255.745 543.667C255.745 543.667 182.984 584.092 99.599 561.343C99.599 561.343 87.097 552.563 97.882 536.779Z" fill="url(#paint3_linear_154_466)"/>
<path d="M454.185 495.565C454.185 495.565 488.869 488.303 503.232 491.63C517.87 494.654 548.678 502.362 543.16 524.948C539.343 541.074 522.507 534.686 522.507 534.686C522.507 534.686 526.889 541.126 520.375 544.064C516.403 545.714 490.777 531.66 490.777 531.66C473.675 537.161 451.359 525.547 451.359 525.547L454.185 495.565Z" fill="#FFCCB3"/>
<path d="M503.531 526.088L522.218 534.7" stroke="#FF967C" stroke-width="2.89316" stroke-linecap="round" stroke-linejoin="round"/>
<path d="M507.71 511.392C512.392 512.313 533.464 522.253 533.464 522.253" stroke="#FF967C" stroke-width="2.89316" stroke-linecap="round" stroke-linejoin="round"/>
<path d="M510.332 500.251C519.717 502.597 528.696 506.341 536.967 511.357" stroke="#FF967C" stroke-width="2.89316" stroke-linecap="round" stroke-linejoin="round"/>
<path d="M299.982 383.304H676.413L866.91 696.817H144.342L299.982 383.304Z" fill="url(#paint4_linear_154_466)"/>
<path d="M606.424 516.98L619.044 593.386L689.134 640.558L806.47 627.88L777.646 593.386L606.424 516.98Z" fill="#96BAFD"/>
<path d="M538.982 441.127L591.521 538.001L669.757 612.223L606.424 516.98L538.982 441.127Z" fill="white"/>
<path d="M538.982 441.127L591.521 538.001L586.454 541.898L534.701 443.743L538.982 441.127Z" fill="#5CA4E6"/>
<path d="M591.521 538.001L669.757 612.223V616.977L586.454 541.898L591.521 538.001Z" fill="#5CA4E6"/>
<path d="M669.757 616.977L777.646 597.256V593.386L669.757 612.223V616.977Z" fill="#5CA4E6"/>
<path d="M777.646 593.386L707.361 503.427L606.424 516.98L669.757 612.223L777.646 593.386Z" fill="#E7EFFF"/>
<path d="M134.446 366.434L118.153 460.118C117.742 462.46 116.449 464.556 114.541 465.975C112.632 467.394 110.253 468.028 107.892 467.747C107.892 467.747 61.978 464.728 46.694 463.455C43.094 463.155 33.31 454.281 36.301 439.665C39.043 419.699 51.886 373.078 60.007 347.19C63.789 334.309 104.232 342.02 104.232 342.02L134.446 366.434Z" fill="#5661AE"/>
<path d="M96.334 398.496C117.625 398.496 134.884 381.237 134.884 359.946C134.884 338.656 117.625 321.396 96.334 321.396C75.044 321.396 57.784 338.656 57.784 359.946C57.784 381.237 75.044 398.496 96.334 398.496Z" fill="#5661AE"/>
<path d="M47.747 468.66L48.377 461.191L105.537 467.701L104.652 474.057L99.789 514.139L44.212 508.144L47.747 468.66Z" fill="#FFCCB3"/>
<path d="M48.655 461.127L105.537 467.701L104.652 474.057C91.727 472.629 62.749 470.197 47.747 468.66L48.655 461.127Z" fill="#FF967C"/>
<path d="M71.782 537.601C87.237 537.601 99.766 525.072 99.766 509.617C99.766 494.161 87.237 481.632 71.782 481.632C56.326 481.632 43.797 494.161 43.797 509.617C43.797 525.072 56.326 537.601 71.782 537.601Z" fill="#FFCCB3"/>
<path d="M85.595 533.709L243.528 459.568C243.528 459.568 253.002 425.888 242.7 431.48C232.14 437.196 63.887 482.677 63.887 482.677L85.595 533.709Z" fill="#FFCCB3"/>
<path d="M333.871 463.287L266.724 475.018C262.399 475.774 259.523 472.77 260.302 468.308L280.949 349.95C281.728 345.489 285.865 341.259 290.191 340.503L357.337 328.772C361.663 328.016 364.538 331.02 363.76 335.482L343.112 453.84C342.334 458.301 338.197 462.531 333.871 463.287Z" fill="url(#paint5_linear_154_466)"/>
<path d="M336.884 462.76L269.738 474.492C265.412 475.248 262.537 472.243 263.315 467.782L283.963 349.424C284.741 344.962 288.879 340.733 293.204 339.977L360.351 328.245C364.676 327.489 367.552 330.493 366.773 334.955L346.126 453.313C345.347 457.775 341.21 462.004 336.884 462.76Z" fill="#B2CDFF"/>
<path d="M233.172 434.776L240.968 460.19C240.968 460.19 273.266 452.445 280.175 449.053C293.648 442.126 308.136 432.783 309.833 429.231C315.031 420.247 315.643 409.131 315.048 401.367C314.973 400.213 314.614 399.096 314.005 398.113C313.396 397.13 312.554 396.313 311.554 395.732C310.555 395.151 309.427 394.825 308.272 394.783C307.116 394.74 305.968 394.982 304.928 395.488L276.657 409.598C276.657 409.598 272.976 403.379 276.679 398.437C279.065 395.175 275.384 388.957 273.748 387.051C273.103 386.17 269.661 386.144 268.881 387.035C267.565 388.716 269.375 394.554 266.598 398.26C261.87 404.193 266.067 406.77 253.894 416.884C244.264 424.817 233.072 434.532 233.172 434.776Z" fill="#FFCCB3"/>
<path d="M287.848 413.896C295.892 411.185 312.297 401.632 312.297 401.632" stroke="#FF967C" stroke-width="2.09903" stroke-linecap="round" stroke-linejoin="round"/>
<path d="M286.791 424.622C293.265 422.266 310.36 413.003 310.36 413.003" stroke="#FF967C" stroke-width="2.09903" stroke-linecap="round" stroke-linejoin="round"/>
<path d="M290.692 434.182C294.96 432.727 307.652 426.69 307.652 426.69" stroke="#FF967C" stroke-width="2.09903" stroke-linecap="round" stroke-linejoin="round"/>
<path d="M46.794 458.141C45.41 463.706 45.542 469.539 47.176 475.035C47.176 475.035 74.674 488.355 103.729 481.665C105.687 479.99 107.121 477.787 107.859 475.318C108.597 472.85 108.609 470.221 107.892 467.747L46.794 458.141Z" fill="#5661AE"/>
<path d="M865.93 358.523C865.93 358.523 857.46 404.878 862.72 450.208C866.01 478.573 884.1 507.691 883.87 521.23C883.5 543.15 858.44 552.435 858.37 565.127C858.32 572.636 878.61 567.964 887.58 565.045C907.73 558.483 920.97 567.399 920.97 567.399L915.6 375.085L865.93 358.523Z" fill="#87E6DF"/>
<path d="M919.77 347.252C901.18 323.985 892.84 335.128 886.31 335.697C886.31 335.697 864.19 339.817 865.93 358.523C867.77 378.316 900.31 510.219 900.31 510.219L968.62 505.085L965.38 486.897L958.71 449.435L951.6 409.38L950.97 404.612L942.98 351.917C942.98 351.917 929.4 359.678 919.77 347.252Z" fill="#87E6DF"/>
<path d="M924.36 387.416C942.52 376.266 948.21 352.505 937.06 334.343C925.91 316.182 902.15 310.498 883.99 321.648C865.82 332.797 860.14 356.559 871.29 374.72C882.44 392.881 906.2 398.565 924.36 387.416Z" fill="#87E6DF"/>
<path d="M760.867 515.695L717.799 518.899L707.619 542.911L711.098 572.552C711.098 572.552 718.509 569.532 719.276 559.047C720.043 548.562 754.328 556 763.291 544.484" fill="#BC775C"/>
<path d="M925.15 476.854L758.056 508.351C757.051 508.582 756.168 509.176 755.576 510.019C754.984 510.863 754.725 511.895 754.849 512.918L758.894 544.714C759.105 546.234 759.873 547.622 761.05 548.607C762.226 549.593 763.727 550.105 765.26 550.046L937.38 543.313L925.15 476.854Z" fill="#87E6DF"/>
<path d="M935.03 543.57C953.91 543.57 969.22 528.262 969.22 509.379C969.22 490.495 953.91 475.188 935.03 475.188C916.15 475.188 900.84 490.495 900.84 509.379C900.84 528.262 916.15 543.57 935.03 543.57Z" fill="#87E6DF"/>
<path d="M762.131 353.916C767.71 326.373 754.59 327.083 750.224 322.703C750.224 322.703 733.843 309.196 721.362 321.787C708.15 335.106 632.417 438.569 632.417 438.569L679.803 482.151L688.71 471.522L711.782 444.004L736.461 414.594L739.527 411.245L772.817 373.538C772.817 373.538 758.976 368.416 762.131 353.916Z" fill="#87E6DF"/>
<path d="M781.949 358.609C788.34 339.538 778.055 318.9 758.984 312.512C739.913 306.124 719.274 316.406 712.886 335.477C706.499 354.548 716.781 375.187 735.852 381.575C754.923 387.963 775.562 377.681 781.949 358.609Z" fill="#87E6DF"/>
<path d="M736.461 414.593C735.045 399.285 729.968 376.353 729.968 376.353C729.968 376.353 725.583 375.948 712.055 406.176C702.037 428.829 690.415 451.918 688.492 471.449L711.564 443.931L736.461 414.593Z" fill="#87E6DF"/>
<path d="M643.928 304.457C641.461 281.165 647.799 280.036 647.886 267.408C647.93 255.067 666.564 232.221 657.677 232.683C648.79 233.144 642.548 241.637 642.548 241.637C641.231 230.567 643.457 212.144 632.129 205.193C620.8 198.242 618.133 201.607 608.908 204.371C584.281 211.934 598.028 244.522 598.28 254.848C598.503 261.348 609.934 285.66 610.453 290.145L614.093 307.435L643.928 304.457Z" fill="#BC775C"/>
<path d="M629.892 237.726L626.524 204.292L629.892 237.726Z" fill="#93523E"/>
<path d="M629.892 237.726L626.524 204.292" stroke="#93523E" stroke-width="1.51544" stroke-linecap="round"/>
<path d="M618.373 238.096L612.894 205.98L618.373 238.096Z" fill="#93523E"/>
<path d="M618.373 238.096L612.894 205.98" stroke="#93523E" stroke-width="1.51544" stroke-linecap="round"/>
<path d="M604.839 238.171L602.069 218.95L604.839 238.171Z" fill="#93523E"/>
<path d="M604.839 238.171L602.069 218.95" stroke="#93523E" stroke-width="1.51544" stroke-linecap="round"/>
<path d="M623.507 263.248C627.531 253.842 637.971 244.789 637.971 244.789L623.507 263.248Z" fill="#93523E"/>
<path d="M623.507 263.248C627.531 253.842 637.971 244.789 637.971 244.789" stroke="#93523E" stroke-width="1.51544" stroke-linecap="round"/>
<path d="M687.075 447.855L650.177 307.427C649.902 306.494 649.29 305.697 648.461 305.188C647.633 304.68 646.645 304.496 645.689 304.672L615.974 310.335C614.554 310.622 613.292 311.427 612.432 312.592C611.573 313.758 611.177 315.201 611.322 316.642L625.186 463.247L687.075 447.855Z" fill="#87E6DF"/>
<path d="M613.762 316.419C613.762 316.419 610.103 302.4 613.762 300.859C617.421 299.319 640.348 294.939 643.425 297.803C646.502 300.667 649.188 312.607 649.188 312.607L613.762 316.419Z" fill="#87E6DF"/>
<path d="M657.015 491.326C674.836 491.326 689.283 476.879 689.283 459.058C689.283 441.237 674.836 426.79 657.015 426.79C639.193 426.79 624.746 441.237 624.746 459.058C624.746 476.879 639.193 491.326 657.015 491.326Z" fill="#87E6DF"/>
<path d="M131.221 302.791C131.221 302.791 154.739 348.341 178.756 355.832C178.756 355.832 192.254 348.665 190.102 307.3" stroke="white" stroke-miterlimit="10"/>
<path d="M177.912 367.572C182.436 367.572 186.103 363.905 186.103 359.382C186.103 354.858 182.436 351.191 177.912 351.191C173.388 351.191 169.721 354.858 169.721 359.382C169.721 363.905 173.388 367.572 177.912 367.572Z" fill="#5661AE"/>
<path d="M166.89 352.083C168.454 352.083 169.721 350.815 169.721 349.252C169.721 347.689 168.454 346.421 166.89 346.421C165.327 346.421 164.06 347.689 164.06 349.252C164.06 350.815 165.327 352.083 166.89 352.083Z" fill="#5661AE"/>
<path d="M186.103 350.331C187.666 350.331 188.934 349.063 188.934 347.5C188.934 345.937 187.666 344.669 186.103 344.669C184.539 344.669 183.272 345.937 183.272 347.5C183.272 349.063 184.539 350.331 186.103 350.331Z" fill="#5661AE"/>
<path d="M413.574 490.758L321.265 491.279V579.966L458.653 571.959L413.574 490.758Z" fill="white"/>
<path d="M404.836 499.399L420.1 530.756" stroke="url(#paint6_linear_154_466)" stroke-width="3.81627" stroke-miterlimit="10" stroke-linecap="round"/>
<path opacity="0.4" d="M389.959 499.402L395.679 511.152" stroke="url(#paint7_linear_154_466)" stroke-width="3.81627" stroke-miterlimit="10" stroke-linecap="round"/>
<path opacity="0.4" d="M327.491 499.402L373.146 498.341L376.501 509.509L328.404 511.152L327.491 499.402Z" fill="url(#paint8_linear_154_466)"/>
<path opacity="0.4" d="M328.772 517.572L355.576 516.849L358.931 528.016L329.685 529.322L328.772 517.572Z" fill="url(#paint9_linear_154_466)"/>
<path opacity="0.4" d="M328.772 537.355L374.426 536.295L377.782 547.462L329.685 549.105L328.772 537.355Z" fill="url(#paint10_linear_154_466)"/>
<path opacity="0.4" d="M330.053 555.526L356.857 554.803L360.212 565.97L330.966 567.276L330.053 555.526Z" fill="url(#paint11_linear_154_466)"/>
<path d="M251.487 640.558L353.277 576.819L425.445 597.344L338.466 673.794L251.487 640.558Z" fill="url(#paint12_linear_154_466)"/>
<path d="M813.54 310.758C813.54 310.758 847.64 299.326 854.05 284.215C854.05 284.215 869.62 286.454 875.73 292.307C881.81 298.161 896.65 299.902 883.79 306.41C870.93 312.918 820.78 318.431 817.73 317.58C814.68 316.729 813.54 310.758 813.54 310.758Z" fill="white"/>
<path d="M799.41 289.95V297.598C799.41 297.598 802.46 308.584 813.54 310.758C813.54 310.758 815.27 316.821 809.17 317.541C803.08 318.261 785.36 309.304 782.753 308.427C780.134 307.563 778.982 303.949 784.06 301.055C784.06 301.055 785.88 291.142 799.41 289.95Z" fill="white"/>
<path d="M830.47 397.157C830.42 397.159 830.37 397.155 830.33 397.144C830.16 397.105 830.01 397.001 829.92 396.856C829.83 396.709 829.79 396.53 829.83 396.358C831.69 388.239 826.49 378.209 821.47 368.506C817.74 361.304 813.88 353.853 812.9 347.135C810.59 331.539 816.9 314.018 816.97 313.848C817.03 313.686 817.15 313.554 817.31 313.481C817.47 313.407 817.64 313.398 817.81 313.455C817.89 313.484 817.96 313.529 818.03 313.587C818.09 313.645 818.14 313.714 818.18 313.792C818.22 313.87 818.24 313.955 818.24 314.041C818.24 314.127 818.23 314.213 818.2 314.294C818.14 314.464 811.93 331.683 814.18 346.952C815.15 353.447 818.95 360.793 822.64 367.903C827.76 377.816 833.08 388.069 831.11 396.659C831.08 396.803 831 396.93 830.88 397.021C830.76 397.111 830.62 397.159 830.47 397.157Z" fill="white"/>
<path d="M806.26 389.719C806.11 389.722 805.97 389.673 805.85 389.583C805.74 389.492 805.66 389.364 805.63 389.221C801.53 372.028 805.92 342.552 807.36 333.922C808.56 327.4 808.98 320.758 808.62 314.136C808.6 313.965 808.66 313.794 808.77 313.662C808.88 313.53 809.03 313.446 809.21 313.429C809.38 313.412 809.55 313.463 809.68 313.57C809.82 313.678 809.9 313.834 809.92 314.005C810.3 320.741 809.87 327.496 808.65 334.132C807.21 342.709 802.85 371.963 806.9 388.92C806.92 389.017 806.93 389.118 806.9 389.215C806.88 389.313 806.84 389.404 806.78 389.483C806.72 389.557 806.64 389.617 806.55 389.657C806.45 389.698 806.36 389.719 806.26 389.719Z" fill="white"/>
<g opacity="0.6">
<path opacity="0.6" d="M829.78 401.855C832.06 401.855 833.91 400.01 833.91 397.733C833.91 395.457 832.06 393.611 829.78 393.611C827.49 393.611 825.64 395.457 825.64 397.733C825.64 400.01 827.49 401.855 829.78 401.855Z" fill="white"/>
</g>
<g opacity="0.6">
<path opacity="0.6" d="M807 393.199C809.29 393.199 811.14 391.354 811.14 389.077C811.14 386.801 809.29 384.956 807 384.956C804.72 384.956 802.87 386.801 802.87 389.077C802.87 391.354 804.72 393.199 807 393.199Z" fill="white"/>
</g>
<path d="M558.69 35.54H564.69" stroke="#5CA4E6" stroke-miterlimit="10"/>
<path d="M668.517 4.14697H322.871C312.772 4.14697 304.584 12.335 304.584 22.434V245.178C304.584 255.278 312.772 263.465 322.871 263.465H668.517C678.616 263.465 686.804 255.278 686.804 245.178V22.434C686.804 12.335 678.616 4.14697 668.517 4.14697Z" fill="url(#paint13_linear_154_466)"/>
<path d="M656.424 197.794H464.408C461.23 197.794 458.654 200.37 458.654 203.548V229.515C458.654 232.693 461.23 235.269 464.408 235.269H656.424C659.602 235.269 662.178 232.693 662.178 229.515V203.548C662.178 200.37 659.602 197.794 656.424 197.794Z" fill="white"/>
<path d="M596.952 213.961V212.468H600.334V225.471H598.679V213.961H596.952ZM603.109 215.741C603.193 214.638 603.618 213.775 604.386 213.151C605.153 212.528 606.148 212.216 607.371 212.216C608.187 212.216 608.888 212.366 609.475 212.666C610.075 212.954 610.525 213.349 610.824 213.853C611.136 214.356 611.292 214.926 611.292 215.561C611.292 216.305 611.076 216.946 610.644 217.486C610.225 218.025 609.673 218.373 608.99 218.529V218.619C609.769 218.811 610.387 219.188 610.842 219.752C611.298 220.315 611.526 221.053 611.526 221.964C611.526 222.647 611.37 223.265 611.058 223.816C610.746 224.356 610.279 224.782 609.655 225.093C609.032 225.405 608.282 225.561 607.407 225.561C606.136 225.561 605.093 225.231 604.278 224.572C603.463 223.9 603.007 222.953 602.911 221.73H604.494C604.578 222.45 604.871 223.037 605.375 223.493C605.878 223.948 606.55 224.176 607.389 224.176C608.228 224.176 608.864 223.96 609.296 223.529C609.739 223.085 609.961 222.515 609.961 221.82C609.961 220.921 609.661 220.273 609.062 219.878C608.462 219.482 607.557 219.284 606.346 219.284H605.932V217.917H606.364C607.467 217.905 608.3 217.726 608.864 217.378C609.427 217.018 609.709 216.467 609.709 215.723C609.709 215.088 609.499 214.578 609.08 214.195C608.672 213.811 608.085 213.619 607.317 213.619C606.574 213.619 605.974 213.811 605.519 214.195C605.063 214.578 604.793 215.094 604.709 215.741H603.109ZM613.538 224.158C615.06 222.935 616.253 221.934 617.117 221.155C617.98 220.363 618.705 219.542 619.293 218.691C619.892 217.827 620.192 216.982 620.192 216.155C620.192 215.376 620 214.764 619.616 214.32C619.245 213.865 618.639 213.637 617.8 213.637C616.985 213.637 616.349 213.895 615.894 214.41C615.45 214.914 615.21 215.591 615.174 216.443H613.592C613.639 215.1 614.047 214.063 614.814 213.331C615.582 212.6 616.571 212.234 617.782 212.234C619.017 212.234 619.994 212.576 620.713 213.259C621.445 213.943 621.811 214.884 621.811 216.083C621.811 217.078 621.511 218.049 620.911 218.996C620.324 219.932 619.652 220.759 618.897 221.478C618.142 222.186 617.176 223.013 616.001 223.96H622.188V225.327H613.538V224.158Z" fill="url(#paint14_linear_154_466)"/>
<path d="M431.75 31.6121H331.123C327.35 31.6121 324.291 34.6711 324.291 38.4451V228.437C324.291 232.21 327.35 235.269 331.123 235.269H431.75C435.523 235.269 438.582 232.21 438.582 228.437V38.4451C438.582 34.6711 435.523 31.6121 431.75 31.6121Z" fill="url(#paint15_linear_154_466)"/>
<path opacity="0.4" d="M381.437 166.864C397.354 166.864 410.258 153.96 410.258 138.043C410.258 122.125 397.354 109.221 381.437 109.221C365.519 109.221 352.615 122.125 352.615 138.043C352.615 153.96 365.519 166.864 381.437 166.864Z" fill="white"/>
<path d="M372.521 130.108V148.4C372.521 148.907 372.653 149.406 372.904 149.847C373.155 150.287 373.516 150.655 373.952 150.913C374.388 151.172 374.884 151.313 375.391 151.322C375.899 151.33 376.399 151.207 376.844 150.964L393.566 141.817C394.026 141.566 394.41 141.195 394.677 140.744C394.944 140.293 395.085 139.778 395.085 139.254C395.085 138.73 394.944 138.215 394.677 137.764C394.41 137.313 394.026 136.942 393.566 136.691L376.844 127.544C376.399 127.301 375.899 127.178 375.391 127.186C374.884 127.195 374.388 127.336 373.952 127.594C373.516 127.853 373.155 128.221 372.904 128.661C372.653 129.102 372.521 129.6 372.521 130.108Z" fill="white"/>
<path d="M463.816 56.073H535.702" stroke="white" stroke-width="16.3488" stroke-miterlimit="10" stroke-linecap="round"/>
<path opacity="0.4" d="M463.816 89.6221H612.375" stroke="white" stroke-width="16.3488" stroke-miterlimit="10" stroke-linecap="round"/>
<path d="M464.702 134.089H536.589" stroke="white" stroke-width="16.3488" stroke-miterlimit="10" stroke-linecap="round"/>
<path opacity="0.4" d="M464.702 167.637H613.261" stroke="white" stroke-width="16.3488" stroke-miterlimit="10" stroke-linecap="round"/>
<path d="M490.76 210.123C489.635 209.084 488.159 208.506 486.628 208.506C485.096 208.506 483.621 209.084 482.496 210.123L480.939 211.56L479.382 210.123C478.257 209.084 476.782 208.506 475.25 208.506C473.719 208.506 472.243 209.084 471.119 210.123C470.525 210.661 470.05 211.317 469.725 212.049C469.4 212.781 469.232 213.574 469.232 214.375C469.232 215.176 469.4 215.968 469.725 216.7C470.05 217.433 470.525 218.089 471.119 218.626L480.939 227.728L490.76 218.746C491.38 218.212 491.877 217.55 492.218 216.806C492.559 216.062 492.736 215.253 492.736 214.435C492.736 213.616 492.559 212.807 492.218 212.063C491.877 211.319 491.38 210.657 490.76 210.123Z" fill="#F4608A"/>
<path d="M501.724 215.741C501.808 214.638 502.234 213.775 503.001 213.151C503.769 212.528 504.764 212.216 505.987 212.216C506.802 212.216 507.504 212.366 508.091 212.666C508.691 212.954 509.14 213.349 509.44 213.853C509.752 214.356 509.908 214.926 509.908 215.561C509.908 216.305 509.692 216.946 509.26 217.486C508.84 218.025 508.289 218.373 507.605 218.529V218.619C508.385 218.811 509.002 219.188 509.458 219.752C509.913 220.315 510.141 221.053 510.141 221.964C510.141 222.647 509.985 223.265 509.674 223.816C509.362 224.356 508.894 224.782 508.271 225.093C507.647 225.405 506.898 225.561 506.023 225.561C504.752 225.561 503.709 225.231 502.893 224.572C502.078 223.9 501.623 222.953 501.527 221.73H503.109C503.193 222.45 503.487 223.037 503.991 223.493C504.494 223.948 505.166 224.176 506.005 224.176C506.844 224.176 507.48 223.96 507.911 223.529C508.355 223.085 508.577 222.515 508.577 221.82C508.577 220.921 508.277 220.273 507.677 219.878C507.078 219.482 506.173 219.284 504.962 219.284H504.548V217.917H504.98C506.083 217.905 506.916 217.726 507.48 217.378C508.043 217.018 508.325 216.467 508.325 215.723C508.325 215.088 508.115 214.578 507.695 214.195C507.288 213.811 506.7 213.619 505.933 213.619C505.19 213.619 504.59 213.811 504.134 214.195C503.679 214.578 503.409 215.094 503.325 215.741H501.724ZM514.311 223.205L512.297 228.043H511.2L512.513 223.205H514.311ZM524.207 213.889H517.895V217.989C518.17 217.606 518.578 217.294 519.118 217.054C519.657 216.802 520.239 216.676 520.862 216.676C521.857 216.676 522.667 216.886 523.29 217.306C523.914 217.714 524.357 218.247 524.621 218.907C524.897 219.554 525.035 220.243 525.035 220.975C525.035 221.838 524.873 222.611 524.549 223.295C524.225 223.978 523.728 224.518 523.056 224.913C522.397 225.309 521.576 225.507 520.592 225.507C519.333 225.507 518.314 225.183 517.535 224.536C516.756 223.888 516.282 223.025 516.114 221.946H517.715C517.871 222.629 518.2 223.163 518.704 223.547C519.208 223.93 519.843 224.122 520.61 224.122C521.558 224.122 522.271 223.84 522.751 223.277C523.23 222.701 523.47 221.946 523.47 221.011C523.47 220.076 523.23 219.356 522.751 218.853C522.271 218.337 521.564 218.079 520.628 218.079C519.993 218.079 519.435 218.235 518.956 218.547C518.488 218.847 518.146 219.26 517.931 219.788H516.384V212.45H524.207V213.889ZM527.012 224.158C528.534 222.935 529.727 221.934 530.591 221.155C531.454 220.363 532.179 219.542 532.767 218.691C533.366 217.827 533.666 216.982 533.666 216.155C533.666 215.376 533.474 214.764 533.09 214.32C532.719 213.865 532.113 213.637 531.274 213.637C530.459 213.637 529.823 213.895 529.368 214.41C528.924 214.914 528.684 215.591 528.648 216.443H527.066C527.114 215.1 527.521 214.063 528.289 213.331C529.056 212.6 530.045 212.234 531.256 212.234C532.491 212.234 533.468 212.576 534.188 213.259C534.919 213.943 535.285 214.884 535.285 216.083C535.285 217.078 534.985 218.049 534.385 218.996C533.798 219.932 533.126 220.759 532.371 221.478C531.616 222.186 530.651 223.013 529.476 223.96H535.662V225.327H527.012V224.158ZM545.557 213.745L540.558 225.471H538.903L543.975 213.907H537.033V212.504H545.557V213.745Z" fill="url(#paint16_linear_154_466)"/>
<path d="M589.616 216.551C589.616 211.034 583.079 206.562 575.016 206.562C566.953 206.562 560.416 211.034 560.416 216.551C560.416 222.068 566.953 226.54 575.016 226.54C575.593 226.54 576.158 226.51 576.717 226.463C576.803 226.455 576.889 226.468 576.969 226.499C577.05 226.53 577.122 226.578 577.181 226.641C578.217 227.726 580.491 229.405 584.799 229.671C584.907 229.678 585.014 229.656 585.11 229.606C585.206 229.555 585.285 229.48 585.341 229.387C585.396 229.294 585.425 229.188 585.424 229.08C585.422 228.972 585.391 228.866 585.334 228.775C584.581 227.651 583.994 226.425 583.589 225.135C583.556 225.006 583.568 224.87 583.623 224.75C583.678 224.629 583.773 224.531 583.892 224.472C587.368 222.647 589.616 219.781 589.616 216.551Z" fill="url(#paint17_linear_154_466)"/>
<path d="M273.191 4H146.406C136.74 4 128.905 11.835 128.905 21.501V196.353C128.905 206.018 136.74 213.854 146.406 213.854H273.191C282.856 213.854 290.692 206.018 290.692 196.353V21.501C290.692 11.835 282.856 4 273.191 4Z" fill="url(#paint18_linear_154_466)"/>
<path d="M201.564 133.195L194.922 148.772H192.724L199.461 133.41H190.239V131.546H201.564V133.195ZM207.128 139.789C206.236 139.439 205.551 138.929 205.073 138.26C204.595 137.591 204.357 136.779 204.357 135.823C204.357 134.963 204.572 134.19 205.002 133.506C205.432 132.805 206.069 132.255 206.913 131.857C207.773 131.443 208.808 131.236 210.019 131.236C211.229 131.236 212.257 131.443 213.101 131.857C213.961 132.255 214.606 132.805 215.036 133.506C215.482 134.19 215.705 134.963 215.705 135.823C215.705 136.747 215.458 137.559 214.964 138.26C214.471 138.945 213.794 139.455 212.934 139.789C213.921 140.092 214.702 140.625 215.275 141.39C215.864 142.138 216.159 143.046 216.159 144.113C216.159 145.149 215.904 146.057 215.394 146.837C214.885 147.602 214.16 148.199 213.22 148.629C212.297 149.043 211.229 149.25 210.019 149.25C208.808 149.25 207.741 149.043 206.817 148.629C205.91 148.199 205.201 147.602 204.691 146.837C204.181 146.057 203.927 145.149 203.927 144.113C203.927 143.046 204.213 142.13 204.787 141.366C205.36 140.601 206.14 140.076 207.128 139.789ZM213.603 136.086C213.603 135.114 213.284 134.366 212.647 133.84C212.01 133.314 211.134 133.052 210.019 133.052C208.92 133.052 208.052 133.314 207.415 133.84C206.778 134.366 206.459 135.122 206.459 136.11C206.459 137.002 206.786 137.718 207.439 138.26C208.108 138.801 208.968 139.072 210.019 139.072C211.086 139.072 211.946 138.801 212.599 138.26C213.268 137.702 213.603 136.978 213.603 136.086ZM210.019 140.745C208.84 140.745 207.877 141.023 207.128 141.581C206.379 142.122 206.005 142.943 206.005 144.042C206.005 145.061 206.363 145.881 207.08 146.503C207.813 147.124 208.792 147.434 210.019 147.434C211.245 147.434 212.217 147.124 212.934 146.503C213.65 145.881 214.009 145.061 214.009 144.042C214.009 142.975 213.642 142.162 212.91 141.605C212.177 141.031 211.213 140.745 210.019 140.745ZM218.569 135.393C218.569 134.31 218.895 133.45 219.548 132.813C220.201 132.16 221.037 131.833 222.057 131.833C223.076 131.833 223.912 132.16 224.565 132.813C225.218 133.45 225.545 134.31 225.545 135.393C225.545 136.492 225.218 137.368 224.565 138.021C223.912 138.658 223.076 138.977 222.057 138.977C221.037 138.977 220.201 138.658 219.548 138.021C218.895 137.368 218.569 136.492 218.569 135.393ZM232.521 132.096L222.845 148.772H220.695L230.371 132.096H232.521ZM222.057 133.171C221.515 133.171 221.085 133.362 220.767 133.744C220.464 134.111 220.313 134.66 220.313 135.393C220.313 136.126 220.464 136.683 220.767 137.065C221.085 137.448 221.515 137.639 222.057 137.639C222.598 137.639 223.028 137.448 223.347 137.065C223.666 136.667 223.825 136.11 223.825 135.393C223.825 134.66 223.666 134.111 223.347 133.744C223.028 133.362 222.598 133.171 222.057 133.171ZM227.719 145.475C227.719 144.376 228.046 143.508 228.699 142.871C229.352 142.218 230.188 141.891 231.207 141.891C232.227 141.891 233.055 142.218 233.692 142.871C234.345 143.508 234.672 144.376 234.672 145.475C234.672 146.558 234.345 147.426 233.692 148.079C233.055 148.732 232.227 149.059 231.207 149.059C230.188 149.059 229.352 148.74 228.699 148.103C228.046 147.45 227.719 146.574 227.719 145.475ZM231.183 143.253C230.642 143.253 230.212 143.444 229.893 143.827C229.575 144.193 229.415 144.743 229.415 145.475C229.415 146.192 229.575 146.741 229.893 147.124C230.212 147.49 230.642 147.673 231.183 147.673C231.725 147.673 232.155 147.49 232.474 147.124C232.792 146.741 232.951 146.192 232.951 145.475C232.951 144.743 232.792 144.193 232.474 143.827C232.155 143.444 231.725 143.253 231.183 143.253Z" fill="white"/>
<path d="M209.798 185.6C236.955 185.6 258.969 163.586 258.969 136.43C258.969 109.273 236.955 87.259 209.798 87.259C182.642 87.259 160.627 109.273 160.627 136.43C160.627 163.586 182.642 185.6 209.798 185.6Z" stroke="white" stroke-width="15" stroke-miterlimit="10" stroke-linecap="round"/>
<path d="M258.969 136.429C258.953 149.46 253.765 161.95 244.545 171.158C235.326 180.366 222.828 185.538 209.798 185.538C196.768 185.538 184.271 180.366 175.051 171.158C165.832 161.95 160.644 149.46 160.627 136.429" stroke="#96BAFD" stroke-width="15" stroke-linecap="round" stroke-linejoin="round"/>
<path d="M209.798 87.259C216.256 87.259 222.65 88.53 228.615 91.001C234.581 93.473 240.002 97.094 244.567 101.66C249.133 106.226 252.755 111.647 255.226 117.613C257.697 123.578 258.969 129.972 258.969 136.43" stroke="#87E6DF" stroke-width="15" stroke-linecap="round" stroke-linejoin="round"/>
<path d="M152.327 36.438H185.009" stroke="white" stroke-width="7.4328" stroke-miterlimit="10" stroke-linecap="round"/>
<path opacity="0.4" d="M152.327 51.6899H219.868" stroke="white" stroke-width="7.4328" stroke-miterlimit="10" stroke-linecap="round"/>
<path d="M866.91 696.817H144.342V714.975H866.91V696.817Z" fill="url(#paint19_linear_154_466)"/>
<path d="M150 238C151.657 238 153 236.657 153 235C153 233.343 151.657 232 150 232C148.343 232 147 233.343 147 235C147 236.657 148.343 238 150 238Z" fill="#5661AE"/>
<defs>
<linearGradient id="paint0_linear_154_466" x1="672.512" y1="71.627" x2="829.78" y2="71.627" gradientUnits="userSpaceOnUse">
<stop stop-color="#87E6DF"/>
<stop offset="1" stop-color="#8CDAA8"/>
</linearGradient>
<linearGradient id="paint1_linear_154_466" x1="720.656" y1="458.548" x2="987.721" y2="458.548" gradientUnits="userSpaceOnUse">
<stop stop-color="#87E6DF"/>
<stop offset="1" stop-color="#8CDAA8"/>
</linearGradient>
<linearGradient id="paint2_linear_154_466" x1="143.65" y1="402.786" x2="229.035" y2="402.786" gradientUnits="userSpaceOnUse">
<stop stop-color="#87E6DF"/>
<stop offset="1" stop-color="#8CDAA8"/>
</linearGradient>
<linearGradient id="paint3_linear_154_466" x1="54.0952" y1="542.555" x2="257.669" y2="542.555" gradientUnits="userSpaceOnUse">
<stop stop-color="#87E6DF"/>
<stop offset="1" stop-color="#8CDAA8"/>
</linearGradient>
<linearGradient id="paint4_linear_154_466" x1="418.5" y1="-7.50004" x2="492.953" y2="1056.47" gradientUnits="userSpaceOnUse">
<stop stop-color="white"/>
<stop offset="1" stop-color="#94B9FF"/>
</linearGradient>
<linearGradient id="paint5_linear_154_466" x1="235.284" y1="401.895" x2="363.887" y2="401.895" gradientUnits="userSpaceOnUse">
<stop stop-color="#87E6DF"/>
<stop offset="1" stop-color="#8CDAA8"/>
</linearGradient>
<linearGradient id="paint6_linear_154_466" x1="401.173" y1="515.077" x2="420.1" y2="515.077" gradientUnits="userSpaceOnUse">
<stop stop-color="#87E6DF"/>
<stop offset="1" stop-color="#8CDAA8"/>
</linearGradient>
<linearGradient id="paint7_linear_154_466" x1="388.586" y1="505.277" x2="395.679" y2="505.277" gradientUnits="userSpaceOnUse">
<stop stop-color="#87E6DF"/>
<stop offset="1" stop-color="#8CDAA8"/>
</linearGradient>
<linearGradient id="paint8_linear_154_466" x1="315.729" y1="504.747" x2="376.501" y2="504.747" gradientUnits="userSpaceOnUse">
<stop stop-color="#87E6DF"/>
<stop offset="1" stop-color="#8CDAA8"/>
</linearGradient>
<linearGradient id="paint9_linear_154_466" x1="321.534" y1="523.086" x2="358.931" y2="523.086" gradientUnits="userSpaceOnUse">
<stop stop-color="#87E6DF"/>
<stop offset="1" stop-color="#8CDAA8"/>
</linearGradient>
<linearGradient id="paint10_linear_154_466" x1="317.01" y1="542.7" x2="377.782" y2="542.7" gradientUnits="userSpaceOnUse">
<stop stop-color="#87E6DF"/>
<stop offset="1" stop-color="#8CDAA8"/>
</linearGradient>
<linearGradient id="paint11_linear_154_466" x1="322.815" y1="561.039" x2="360.212" y2="561.039" gradientUnits="userSpaceOnUse">
<stop stop-color="#87E6DF"/>
<stop offset="1" stop-color="#8CDAA8"/>
</linearGradient>
<linearGradient id="paint12_linear_154_466" x1="209.737" y1="625.306" x2="425.445" y2="625.306" gradientUnits="userSpaceOnUse">
<stop stop-color="#87E6DF"/>
<stop offset="1" stop-color="#8CDAA8"/>
</linearGradient>
<linearGradient id="paint13_linear_154_466" x1="451.445" y1="-78.3617" x2="510.69" y2="558.31" gradientUnits="userSpaceOnUse">
<stop stop-color="white"/>
<stop offset="1" stop-color="#94B9FF"/>
</linearGradient>
<linearGradient id="paint14_linear_154_466" x1="590.895" y1="218.889" x2="622.188" y2="218.889" gradientUnits="userSpaceOnUse">
<stop stop-color="#87E6DF"/>
<stop offset="1" stop-color="#8CDAA8"/>
</linearGradient>
<linearGradient id="paint15_linear_154_466" x1="296.861" y1="133.441" x2="438.582" y2="133.441" gradientUnits="userSpaceOnUse">
<stop stop-color="#87E6DF"/>
<stop offset="1" stop-color="#8CDAA8"/>
</linearGradient>
<linearGradient id="paint16_linear_154_466" x1="490.96" y1="220.13" x2="545.557" y2="220.13" gradientUnits="userSpaceOnUse">
<stop stop-color="#87E6DF"/>
<stop offset="1" stop-color="#8CDAA8"/>
</linearGradient>
<linearGradient id="paint17_linear_154_466" x1="553.408" y1="218.117" x2="589.616" y2="218.117" gradientUnits="userSpaceOnUse">
<stop stop-color="#87E6DF"/>
<stop offset="1" stop-color="#8CDAA8"/>
</linearGradient>
<linearGradient id="paint18_linear_154_466" x1="90.0761" y1="108.927" x2="290.692" y2="108.927" gradientUnits="userSpaceOnUse">
<stop stop-color="#87E6DF"/>
<stop offset="1" stop-color="#8CDAA8"/>
</linearGradient>
<linearGradient id="paint19_linear_154_466" x1="-29.0743" y1="705.896" x2="866.91" y2="705.896" gradientUnits="userSpaceOnUse">
<stop stop-color="#87E6DF"/>
<stop offset="1" stop-color="#8CDAA8"/>
</linearGradient>
</defs>
</svg>
