<svg width="1065" height="849" viewBox="0 0 1065 849" fill="none" xmlns="http://www.w3.org/2000/svg">
<path d="M532.103 848.224C825.98 848.224 1064.21 842.138 1064.21 834.63C1064.21 827.123 825.98 821.036 532.103 821.036C238.231 821.036 0 827.123 0 834.63C0 842.138 238.231 848.224 532.103 848.224Z" fill="#F5F8FF"/>
<path d="M670.581 0H182.422C175.171 0 169.292 5.879 169.292 13.13V334.46C169.292 341.712 175.171 347.59 182.422 347.59H670.581C677.833 347.59 683.711 341.712 683.711 334.46V13.13C683.711 5.879 677.833 0 670.581 0Z" fill="url(#paint0_linear_150_4)"/>
<path d="M659.63 226.39H568.674C565.3 226.39 562.565 229.125 562.565 232.499V331.208C562.565 334.582 565.3 337.317 568.674 337.317H659.63C663.004 337.317 665.739 334.582 665.739 331.208V232.499C665.739 229.125 663.004 226.39 659.63 226.39Z" fill="#87E6DF"/>
<path d="M322.104 225.351H190.546C187.689 225.351 185.373 227.667 185.373 230.524V332.143C185.373 335.001 187.689 337.317 190.546 337.317H322.104C324.961 337.317 327.277 335.001 327.277 332.143V230.524C327.277 227.667 324.961 225.351 322.104 225.351Z" fill="white"/>
<path d="M546.282 225.351H344.207C340.692 225.351 337.842 228.201 337.842 231.716V330.952C337.842 334.467 340.692 337.317 344.207 337.317H546.282C549.797 337.317 552.647 334.467 552.647 330.952V231.716C552.647 228.201 549.797 225.351 546.282 225.351Z" fill="white"/>
<path d="M657.573 45.3979H474.594C470.084 45.3979 466.428 49.0539 466.428 53.5639V207.197C466.428 211.706 470.084 215.362 474.594 215.362H657.573C662.083 215.362 665.739 211.706 665.739 207.197V53.5639C665.739 49.0539 662.083 45.3979 657.573 45.3979Z" fill="#8CDAA8"/>
<path d="M262.862 491.167L169.292 827.062H188.353L296.506 491.167H262.862Z" fill="#D1E8F7"/>
<path d="M262.862 491.167L255.993 515.828L291.844 505.646L296.506 491.167H262.862Z" fill="#87E6DF"/>
<path d="M927.74 758.618L877.05 826.003C875.86 827.591 874.08 828.639 872.12 828.917C870.15 829.195 868.15 828.681 866.57 827.486L861.86 823.947L921.55 744.591L926.26 748.13C927.85 749.324 928.89 751.1 929.17 753.067C929.45 755.034 928.94 757.031 927.74 758.618Z" fill="#5661AE"/>
<path d="M879.93 719.158L898.2 734.011L879.64 762.66L859.03 746.933L879.93 719.158Z" fill="#BC775C"/>
<path d="M888.04 726.395L865.28 751.224L859.74 746.855L881.06 720.662L888.04 726.395Z" fill="#93523E" stroke="#93523E"/>
<path d="M895.75 732.169C895.75 732.169 890.62 750.217 873.71 759.462L858.44 819.164C858.93 822.591 862.76 824.792 865.3 825.608C865.86 825.784 866.46 825.782 867.02 825.601C867.58 825.421 868.06 825.072 868.41 824.601L922.6 752.567C923.5 751.365 923.9 749.857 923.71 748.365C923.51 746.874 922.74 745.518 921.55 744.591C916.82 740.879 909.55 735.283 906.41 733.363C901.54 730.394 898.08 729.707 895.75 732.169Z" fill="#8CDAA8"/>
<path d="M870.18 771.842L878.87 769.978C879.19 769.91 879.52 769.921 879.83 770.01C880.14 770.099 880.42 770.264 880.66 770.489C880.89 770.714 881.07 770.994 881.17 771.302C881.27 771.611 881.29 771.94 881.23 772.259C881.16 772.651 880.98 773.013 880.7 773.298C880.42 773.582 880.07 773.777 879.68 773.856L869.01 776.009L870.18 771.842Z" fill="white"/>
<path d="M868.13 781.302L876.77 779.417C877.09 779.349 877.42 779.36 877.73 779.449C878.04 779.538 878.33 779.703 878.56 779.928C878.8 780.153 878.97 780.433 879.07 780.741C879.17 781.05 879.19 781.379 879.14 781.698C879.07 782.09 878.88 782.452 878.6 782.737C878.33 783.022 877.97 783.216 877.58 783.295L867.06 785.477L868.13 781.302Z" fill="white"/>
<path d="M865.49 791.601L874.04 789.692C874.36 789.624 874.69 789.635 875 789.724C875.31 789.813 875.6 789.977 875.83 790.203C876.06 790.428 876.24 790.707 876.34 791.016C876.44 791.325 876.46 791.653 876.4 791.973C876.33 792.365 876.15 792.727 875.87 793.011C875.59 793.296 875.24 793.49 874.85 793.569L864.45 795.667L865.49 791.601Z" fill="white"/>
<path d="M706.212 640.627L850.88 757.182L883.88 718.721L757.392 600.051L706.212 640.627Z" fill="#1F2D49"/>
<path d="M783.808 624.833V703.144L850.88 757.182L860.51 696.794L783.808 624.833Z" fill="#0D1B33"/>
<path d="M719.05 426.348L695.27 615.976H761.757L819.51 427.299L719.05 426.348Z" fill="#1F2D49"/>
<path d="M776.138 568.999L787.305 474.926H814.76L776.138 568.999Z" fill="#0D1B33"/>
<path d="M835.82 830.314H751.498C749.512 830.314 747.606 829.525 746.202 828.12C744.797 826.715 744.008 824.81 744.008 822.823V816.936H843.31V822.823C843.31 824.81 842.52 826.715 841.12 828.12C839.71 829.525 837.81 830.314 835.82 830.314Z" fill="#5661AE"/>
<path d="M838.61 768.381L837.73 791.916L803.671 794.3L803.854 768.381H838.61Z" fill="#BC775C"/>
<path d="M837.71 779.219L804.181 775.953L804.342 768.9L838.09 770.191L837.71 779.219Z" fill="#93523E" stroke="#93523E"/>
<path d="M837.73 788.851C837.73 788.851 820.22 795.597 802.667 787.644L745.775 811.328C743.327 813.776 743.871 818.158 744.749 820.683C744.944 821.236 745.307 821.714 745.786 822.052C746.266 822.389 746.839 822.569 747.425 822.566H837.56C839.07 822.567 840.51 821.978 841.59 820.925C842.66 819.872 843.28 818.44 843.31 816.936C843.43 810.918 843.53 801.749 843.18 798.08C842.63 792.409 841.09 789.226 837.73 788.851Z" fill="#8CDAA8"/>
<path d="M790.648 792.261L797.361 798.085C797.606 798.298 797.795 798.568 797.912 798.87C798.028 799.173 798.068 799.5 798.029 799.823C797.989 800.145 797.871 800.452 797.684 800.718C797.498 800.984 797.249 801.199 796.96 801.346C796.605 801.527 796.204 801.596 795.81 801.545C795.415 801.494 795.045 801.325 794.748 801.061L786.614 793.83L790.648 792.261Z" fill="white"/>
<path d="M781.854 796.308L788.558 802.084C788.803 802.297 788.992 802.566 789.109 802.869C789.225 803.172 789.265 803.499 789.226 803.821C789.186 804.144 789.068 804.451 788.881 804.717C788.695 804.983 788.446 805.198 788.157 805.345C787.802 805.526 787.401 805.595 787.007 805.544C786.612 805.493 786.242 805.324 785.944 805.06L777.876 797.964L781.854 796.308Z" fill="white"/>
<path d="M772.041 800.394L778.704 806.076C778.949 806.289 779.138 806.558 779.255 806.861C779.371 807.164 779.411 807.491 779.372 807.814C779.332 808.136 779.214 808.443 779.027 808.709C778.841 808.975 778.592 809.19 778.303 809.337C777.948 809.518 777.547 809.587 777.153 809.536C776.758 809.485 776.388 809.316 776.091 809.052L768.166 802.007L772.041 800.394Z" fill="white"/>
<path d="M859.85 427.299C859.3 436.915 859.3 446.555 859.85 456.171C862.06 487.255 854.99 578.028 855.05 589.972C855.1 601.917 847.24 770.15 847.24 770.15H799.436C799.436 770.15 787.217 625.569 786.934 609.022C786.652 592.476 783.808 427.979 783.808 427.979L859.85 427.299Z" fill="#1F2D49"/>
<path d="M717.61 437.83L859.85 456.171V427.299L718.347 431.952L717.61 437.83Z" fill="#0D1B33"/>
<path d="M728.514 649.219C746.874 649.219 761.757 634.336 761.757 615.976C761.757 597.616 746.874 582.732 728.514 582.732C710.154 582.732 695.271 597.616 695.271 615.976C695.271 634.336 710.154 649.219 728.514 649.219Z" fill="#1F2D49"/>
<path d="M976.25 474.926H103.49V491.167H976.25V474.926Z" fill="url(#paint1_linear_150_4)"/>
<path fill-rule="evenodd" clip-rule="evenodd" d="M569.71 814.998C560.789 818.454 554.549 817.736 554.549 817.736L552.647 798.032L567.998 797.262L569.71 814.998Z" fill="white"/>
<path fill-rule="evenodd" clip-rule="evenodd" d="M438.444 833.405C429.144 835.654 423.054 834.12 423.054 834.12L423.767 814.337L439.086 815.598L438.444 833.405Z" fill="white"/>
<path d="M827.46 448.246C827.46 448.246 821.07 460.319 819.51 461.704C817.96 463.09 792.278 466.257 787.305 468.038C782.332 469.819 779.957 472.512 779.957 474.926H840.32C840.32 474.926 841.88 473.47 843.01 468.829C844.13 464.189 846.1 462.221 846.1 462.221L827.46 448.246Z" fill="#BC775C"/>
<path d="M740.694 258.049C744.664 238.451 735.328 238.956 732.221 235.84C732.221 235.84 720.565 226.228 711.684 235.188C702.283 244.665 648.395 318.285 648.395 318.285L682.113 349.296L688.45 341.733L704.868 322.153L722.428 301.225L724.609 298.843L748.298 272.012C748.298 272.012 738.449 268.367 740.694 258.049Z" fill="#5661AE"/>
<path d="M754.796 261.389C759.341 247.819 752.025 233.133 738.455 228.588C724.884 224.043 710.199 231.359 705.653 244.929C701.108 258.5 708.425 273.185 721.995 277.73C735.565 282.276 750.251 274.959 754.796 261.389Z" fill="#5661AE"/>
<path d="M724.299 298.739C724.978 294.642 726.339 286.45 727.802 278.984L735.582 242.846C735.582 242.846 714.688 273.726 705.062 295.236C697.934 311.355 689.664 327.783 688.296 341.681L704.712 322.1L722.272 301.173L724.299 298.739Z" fill="#465393"/>
<path d="M614.715 235.401C606.703 220.787 610.553 218.307 607.145 209.992C603.787 201.879 609.749 181.766 604.041 184.508C598.334 187.251 596.568 194.539 596.568 194.539C592.664 187.633 589.069 174.928 579.724 173.474C570.379 172.02 569.552 174.961 564.254 179.307C550.163 191.032 568.132 208.652 571.131 215.362C573.062 219.568 587.239 232.391 588.81 235.193L595.946 245.545L614.715 235.401Z" fill="#BC775C"/>
<path d="M587.185 195.445L575.798 174.42" stroke="#93523E" stroke-width="1.07832" stroke-linecap="round"/>
<path d="M579.724 198.849L567.313 179.269" stroke="#93523E" stroke-width="1.07832" stroke-linecap="round"/>
<path d="M570.86 202.613L563.766 190.755" stroke="#93523E" stroke-width="1.07832" stroke-linecap="round"/>
<path d="M589.999 213.953C590.059 206.673 594.428 197.864 594.428 197.864" stroke="#93523E" stroke-width="1.07832" stroke-linecap="round"/>
<path d="M682.398 317.699L613.834 226.39C613.397 225.854 612.777 225.498 612.093 225.392C611.409 225.285 610.71 225.436 610.131 225.814L592.177 237.688C591.324 238.266 590.716 239.14 590.472 240.141C590.228 241.142 590.364 242.199 590.855 243.105L645.993 344.79L682.398 317.699Z" fill="#5661AE"/>
<path d="M665.739 356.265C678.42 356.265 688.7 345.985 688.7 333.304C688.7 320.623 678.42 310.343 665.739 310.343C653.058 310.343 642.778 320.623 642.778 333.304C642.778 345.985 653.058 356.265 665.739 356.265Z" fill="#5661AE"/>
<path d="M761.675 215.2C761.675 215.2 728.199 225.849 721.594 228.611C714.989 231.374 714.548 242.426 714.108 250.254C713.8 255.739 719.991 345.805 720.398 397.967C720.485 409.111 718.407 416.182 717.072 422.375C715.738 428.569 717.072 431.94 717.072 431.94L860.51 433.223C860.51 433.223 856.21 251.986 855.33 245.54C854.45 239.093 861.37 233.541 853.87 230.296L799.097 215.2H761.675Z" fill="white"/>
<path d="M743.675 221.013C743.675 221.013 749.14 246.013 752.721 266.021C756.302 286.029 757.392 451.665 757.392 451.665C757.392 451.665 715.477 443.516 709.8 433.887C704.122 424.257 715.058 380.992 715.909 341.681C716.761 302.37 708.486 241.364 717.174 230.78C717.174 230.781 719.402 228.572 743.675 221.013Z" fill="#5661AE"/>
<path d="M814.12 219.406C814.12 219.406 794.233 260.842 795.449 273.471C796.666 286.1 796.735 393.801 795.449 416.287C794.651 429.966 792.567 443.54 789.225 456.828C789.225 456.828 843.48 460.67 864.44 454.108C864.44 454.108 874.4 391.452 867.86 369.069C861.33 346.686 856.34 230.356 856.34 230.356L814.12 219.406Z" fill="#5661AE"/>
<path d="M828.8 275.089C828.8 275.089 830.83 350.184 830.41 375.215C830.15 390.813 812.31 397.419 812.26 406.45C812.23 411.793 826.34 405.538 830.15 411.062C833.95 416.585 827.45 433.887 827.45 433.887L860.51 433.223L873.76 368.954L845.85 271.224L828.8 275.089Z" fill="#465393"/>
<path d="M762.363 198.462L759.258 233.459C759.258 233.459 758.43 238.895 767.871 240.615C775.368 241.98 790.947 233.171 794.464 230.269C802.28 223.819 803.002 219.916 802.176 216.927C800.993 212.644 797.126 182.464 797.126 182.464L762.363 198.462Z" fill="#BC775C"/>
<path d="M760.324 227.103L762.237 205.532L778.901 197.301L760.324 227.103Z" fill="#93523E" stroke="#93523E"/>
<path d="M743.839 132.224C743.839 132.224 737.455 160.817 736.606 180.29C735.749 199.937 742.769 203.678 751.473 205.145C758.338 206.302 769.017 206.386 775.733 203.033C787.977 196.918 808.08 182.077 810.711 179.198C814.79 174.74 814.51 154.857 798.948 149.94C787.631 146.363 758.776 115.998 743.839 132.224Z" fill="#BC775C"/>
<path d="M743.902 135.273C753.185 138.912 770.657 136.521 780.254 139.636C789.838 142.759 781.117 146.056 781.535 155.315C781.804 161.312 782.26 172.772 785.94 172.62C789.62 172.469 791.788 159.454 799.549 159.95C807.308 160.456 810.968 163.77 810.797 168.733C810.63 173.687 805.053 178.004 800.654 180.296C795.147 183.148 792.874 181.952 792.874 181.952C792.874 181.952 799.072 204.772 800.008 203.868C800.008 203.868 806.693 200.095 807.899 193.49C807.899 193.49 816.77 191.568 814.81 182.695C814.81 182.695 820.33 180.922 817.71 175.785C817.71 175.785 831.99 166.183 824.55 154.433C824.55 154.433 831.32 147.677 823.23 144.82C823.23 144.82 833.95 129.158 818.7 125.819C818.7 125.819 819.72 118.447 812.74 118.728C812.74 118.728 809.693 106.048 794.462 111.049C794.389 108.51 793.551 106.052 792.057 103.998C790.563 101.944 788.482 100.389 786.089 99.5378C777.463 96.0638 771.849 100.845 771.849 100.845C771.849 100.845 762.796 93.4608 758.029 104.287C758.029 104.287 751.182 100.787 746.049 104.506C740.908 108.213 743.407 115.984 743.407 115.984C743.407 115.984 737.532 114.607 735.388 119.473C732.36 126.32 736.612 128.815 736.612 128.815C736.612 128.815 727.047 140.123 740.498 150.834L743.902 135.273Z" fill="#493212"/>
<path d="M767.264 163.501C767.769 161.188 766.95 159.045 765.435 158.714C763.92 158.383 762.283 159.99 761.778 162.302C761.272 164.614 762.091 166.757 763.606 167.088C765.121 167.419 766.759 165.813 767.264 163.501Z" fill="#080B09"/>
<path d="M746.418 158.806C746.923 156.494 746.105 154.351 744.59 154.02C743.075 153.689 741.437 155.295 740.932 157.608C740.427 159.92 741.245 162.063 742.76 162.394C744.275 162.725 745.913 161.119 746.418 158.806Z" fill="#080B09"/>
<path d="M750.539 164.946C750.539 164.946 753.128 169.932 749.387 170.008C745.813 169.958 743.731 172.055 747.336 175.094" stroke="#93523E" stroke-width="1.07832" stroke-linecap="round"/>
<path d="M747.889 179.704L747.905 179.706L747.921 179.707C750.138 179.866 754.565 180.185 757.508 180.446H757.513C757.599 180.453 757.682 180.483 757.752 180.533C757.822 180.584 757.876 180.652 757.91 180.732C757.944 180.811 757.955 180.898 757.943 180.983C757.931 181.065 757.898 181.143 757.846 181.208C757.199 181.921 756.347 182.769 755.4 183.5C754.443 184.239 753.422 184.833 752.439 185.069C751.477 185.301 750.57 185.188 749.758 184.537C748.922 183.865 748.122 182.572 747.525 180.297L747.515 180.258L747.499 180.221C747.472 180.161 747.462 180.094 747.47 180.029C747.477 179.963 747.502 179.901 747.542 179.848C747.582 179.795 747.635 179.754 747.696 179.729C747.757 179.703 747.823 179.695 747.889 179.704Z" fill="#93523E" stroke="#93523E"/>
<path d="M774.528 155.881L774.32 156.3C774.071 156.937 773.58 157.449 772.955 157.726C772.329 158.002 771.62 158.02 770.982 157.775L760.119 153.279C759.585 153.083 759.143 152.693 758.882 152.187C758.621 151.681 758.559 151.095 758.709 150.546C758.786 150.205 758.933 149.884 759.143 149.605C759.352 149.325 759.618 149.094 759.924 148.925C760.229 148.756 760.567 148.653 760.915 148.625C761.263 148.596 761.613 148.641 761.942 148.758L773.012 152.836C773.315 152.931 773.595 153.087 773.837 153.293C774.078 153.5 774.275 153.753 774.417 154.037C774.558 154.321 774.641 154.631 774.66 154.948C774.679 155.265 774.634 155.582 774.528 155.881Z" fill="#080B09"/>
<path d="M737.875 145.768L749.646 144.975C749.995 144.955 750.343 145.01 750.669 145.136C750.995 145.262 751.29 145.455 751.536 145.703C751.781 145.951 751.972 146.249 752.094 146.576C752.216 146.903 752.267 147.252 752.244 147.601C752.234 148.17 752.01 148.715 751.616 149.127C751.223 149.539 750.69 149.788 750.121 149.826L738.432 151.079C737.751 151.134 737.075 150.918 736.553 150.476C736.031 150.035 735.704 149.405 735.644 148.724L735.563 148.264C735.546 147.947 735.592 147.629 735.699 147.331C735.807 147.032 735.974 146.758 736.19 146.525C736.405 146.292 736.666 146.105 736.956 145.975C737.245 145.845 737.558 145.775 737.875 145.768Z" fill="#080B09"/>
<path d="M857.42 248.364C842.64 234.889 838.28 243.158 834.01 244.223C834.01 244.223 819.78 249.284 822.9 261.507C826.2 274.441 861.67 358.498 861.67 358.498L906.43 347.902L902.37 336.18L894.01 312.035L885.08 286.218L884.15 283.122L873.3 249.014C873.3 249.014 865.12 255.591 857.42 248.364Z" fill="#5661AE"/>
<path d="M864.7 274.518C875.57 265.211 876.84 248.853 867.53 237.982C858.22 227.11 841.86 225.842 830.99 235.149C820.12 244.456 818.85 260.814 828.16 271.685C837.47 282.557 853.82 283.825 864.7 274.518Z" fill="#5661AE"/>
<path d="M861.33 346.686L821.74 453.79C821.53 454.448 821.57 455.162 821.85 455.794C822.13 456.426 822.63 456.932 823.27 457.214L842.97 465.869C843.92 466.273 844.99 466.31 845.96 465.973C846.93 465.636 847.75 464.949 848.24 464.045L903.83 362.603L861.33 346.686Z" fill="#5661AE"/>
<path d="M883.47 375.192C896.15 375.192 906.43 364.912 906.43 352.231C906.43 339.55 896.15 329.27 883.47 329.27C870.79 329.27 860.51 339.55 860.51 352.231C860.51 364.912 870.79 375.192 883.47 375.192Z" fill="#5661AE"/>
<path d="M263.502 609.105H349.767C349.767 618.622 345.987 627.749 339.257 634.479C332.527 641.208 323.4 644.989 313.883 644.989H299.387C289.87 644.989 280.742 641.208 274.013 634.479C267.283 627.749 263.502 618.622 263.502 609.105Z" fill="#E7EFFF"/>
<path d="M308.55 644.989H304.72V817.481H308.55V644.989Z" fill="#87E6DF"/>
<path d="M304.72 817.481L252.138 834.52H360.316L308.55 817.481H304.72Z" fill="#87E6DF"/>
<path d="M133.906 491.167L40.336 827.062H59.397L167.549 491.167H133.906Z" fill="#E7EFFF"/>
<path d="M133.906 491.167L127.036 515.828L162.887 505.646L167.549 491.167H133.906Z" fill="#96BAFD"/>
<path d="M931.57 491.167L1025.14 827.062H1006.08L897.92 491.167H931.57Z" fill="#D1E8F7"/>
<path d="M931.57 491.167L936.82 510.021L902.77 506.218L897.92 491.167H931.57Z" fill="#87E6DF"/>
<path d="M445.476 45.3979H193.487C189.006 45.3979 185.373 49.0309 185.373 53.5119V207.086C185.373 211.567 189.006 215.2 193.487 215.2H445.476C449.957 215.2 453.59 211.567 453.59 207.086V53.5119C453.59 49.0309 449.957 45.3979 445.476 45.3979Z" fill="#87E6DF"/>
<path d="M359.68 249.477H373.153" stroke="#D4DCF4" stroke-width="12" stroke-miterlimit="10" stroke-linecap="round"/>
<path d="M402.807 249.477H528.263" stroke="#5661AE" stroke-width="12" stroke-miterlimit="10" stroke-linecap="round"/>
<path d="M359.68 278.986H373.153" stroke="#D4DCF4" stroke-width="12" stroke-miterlimit="10" stroke-linecap="round"/>
<path d="M402.807 278.986H461.219" stroke="#5661AE" stroke-width="12" stroke-miterlimit="10" stroke-linecap="round"/>
<path d="M359.68 309.012H373.153" stroke="#D4DCF4" stroke-width="12" stroke-miterlimit="10" stroke-linecap="round"/>
<path d="M402.807 309.012H503.259" stroke="#5661AE" stroke-width="12" stroke-miterlimit="10" stroke-linecap="round"/>
<path d="M203.209 136.498C203.209 136.498 225.415 131.821 232.458 142.62C239.501 153.419 246.544 173.706 262.509 171.075C278.473 168.445 286.178 115.384 302.142 115.853C318.106 116.323 315.567 151.072 332.94 151.541C350.313 152.011 345.471 132.121 357.07 132.665C371.141 133.324 369.564 174.549 387.876 175.018C406.188 175.488 404.31 120.552 432.013 121.491" stroke="white" stroke-width="6.35676" stroke-miterlimit="10" stroke-linecap="round"/>
<path d="M210.29 71.103H254.624" stroke="white" stroke-width="10.0826" stroke-miterlimit="10" stroke-linecap="round"/>
<path opacity="0.4" d="M210.29 91.793H301.909" stroke="white" stroke-width="10.0826" stroke-miterlimit="10" stroke-linecap="round"/>
<path opacity="0.4" d="M566.084 159.202C582.001 159.202 594.905 146.298 594.905 130.38C594.905 114.463 582.001 101.559 566.084 101.559C550.166 101.559 537.262 114.463 537.262 130.38C537.262 146.298 550.166 159.202 566.084 159.202Z" fill="white"/>
<path d="M557.167 122.445V140.738C557.167 141.245 557.299 141.744 557.55 142.184C557.802 142.625 558.163 142.993 558.599 143.251C559.035 143.51 559.531 143.65 560.038 143.659C560.546 143.668 561.046 143.545 561.491 143.301L578.213 134.155C578.673 133.903 579.056 133.533 579.324 133.082C579.591 132.631 579.732 132.116 579.732 131.592C579.732 131.067 579.591 130.553 579.324 130.102C579.056 129.651 578.673 129.28 578.213 129.028L561.491 119.882C561.046 119.639 560.545 119.515 560.038 119.524C559.531 119.533 559.035 119.674 558.599 119.932C558.163 120.191 557.802 120.558 557.551 120.999C557.3 121.44 557.167 121.938 557.167 122.445Z" fill="white"/>
<path d="M182.828 0H670.175C673.765 0 677.208 1.426 679.747 3.965C682.285 6.503 683.711 9.946 683.711 13.536V33.927H169.292V13.536C169.292 9.946 170.718 6.503 173.257 3.965C175.795 1.426 179.238 0 182.828 0Z" fill="#87E6DF"/>
<path d="M976.25 474.926H832.57V491.167H976.25V474.926Z" fill="#96BAFD"/>
<path d="M802.611 491.167L896.18 827.062H877.12L768.968 491.167H802.611Z" fill="#E7EFFF"/>
<path d="M802.611 491.167L809.481 515.828L773.63 505.646L768.968 491.167H802.611Z" fill="#87E6DF"/>
<path d="M923.76 202.175C962.74 202.175 994.34 170.574 994.34 131.592C994.34 92.6088 962.74 61.0078 923.76 61.0078C884.77 61.0078 853.17 92.6088 853.17 131.592C853.17 170.574 884.77 202.175 923.76 202.175Z" fill="#87E6DF"/>
<path d="M948.91 129.876C948.91 125.311 947.67 120.831 945.32 116.917C942.97 113.003 939.6 109.802 935.57 107.657C931.54 105.511 927 104.502 922.44 104.737C917.88 104.972 913.47 106.442 909.69 108.991C905.9 111.54 902.88 115.07 900.94 119.205C899 123.34 898.23 127.923 898.7 132.465C899.17 137.006 900.86 141.334 903.6 144.985C906.34 148.637 910.03 151.475 914.26 153.195V161.455H933.22V153.195C937.86 151.308 941.83 148.082 944.62 143.928C947.42 139.775 948.91 134.882 948.91 129.876Z" stroke="white" stroke-width="3.71807" stroke-linecap="round" stroke-linejoin="round"/>
<path d="M914.26 161.455H933.29V165.506C933.29 167.222 932.61 168.868 931.39 170.082C930.18 171.296 928.53 171.978 926.82 171.978H920.73C919.01 171.978 917.37 171.296 916.15 170.082C914.94 168.868 914.26 167.222 914.26 165.506V161.455Z" stroke="white" stroke-width="3.71807" stroke-linecap="round" stroke-linejoin="round"/>
<path d="M919.49 161.455V132.558C919.49 131.866 919.21 131.203 918.72 130.714C918.23 130.225 917.57 129.95 916.88 129.95H916.8C916.11 129.95 915.44 130.225 914.96 130.714C914.47 131.203 914.19 131.866 914.19 132.558C914.19 132.9 914.26 133.239 914.39 133.556C914.52 133.872 914.71 134.159 914.96 134.402C915.2 134.644 915.49 134.836 915.8 134.967C916.12 135.098 916.46 135.165 916.8 135.165H930.68C931.02 135.165 931.36 135.098 931.68 134.967C931.99 134.836 932.28 134.644 932.52 134.402C932.77 134.159 932.96 133.872 933.09 133.556C933.22 133.239 933.29 132.9 933.29 132.558C933.29 131.866 933.01 131.203 932.52 130.714C932.03 130.225 931.37 129.95 930.68 129.95H930.45C929.76 129.95 929.1 130.225 928.61 130.714C928.12 131.203 927.84 131.866 927.84 132.558V161.455" stroke="white" stroke-width="3.71807" stroke-linecap="round" stroke-linejoin="round"/>
<path d="M923.77 91.2051V97.6651" stroke="white" stroke-width="3.71807" stroke-linecap="round" stroke-linejoin="round"/>
<path d="M900.48 97.4282L903.71 103.023" stroke="white" stroke-width="3.71807" stroke-linecap="round" stroke-linejoin="round"/>
<path d="M883.43 114.461L889.02 117.691" stroke="white" stroke-width="3.71807" stroke-linecap="round" stroke-linejoin="round"/>
<path d="M964.08 114.516L958.49 117.746" stroke="white" stroke-width="3.71807" stroke-linecap="round" stroke-linejoin="round"/>
<path d="M947.05 97.46L943.82 103.054" stroke="white" stroke-width="3.71807" stroke-linecap="round" stroke-linejoin="round"/>
<path d="M148.066 45.3979H95.699C92.043 45.3979 89.08 48.362 89.08 52.018V104.384C89.08 108.04 92.043 111.004 95.699 111.004H148.066C151.722 111.004 154.685 108.04 154.685 104.384V52.018C154.685 48.362 151.722 45.3979 148.066 45.3979Z" fill="#8CDAA8"/>
<path d="M148.066 126.399H95.699C92.043 126.399 89.08 129.363 89.08 133.018V185.385C89.08 189.041 92.043 192.004 95.699 192.004H148.066C151.722 192.004 154.685 189.041 154.685 185.385V133.018C154.685 129.363 151.722 126.399 148.066 126.399Z" fill="#8CDAA8"/>
<path d="M143.231 150.359C143.197 148.58 142.859 146.819 142.234 145.152C141.681 143.726 140.837 142.431 139.756 141.349C138.674 140.268 137.379 139.424 135.953 138.871C134.286 138.247 132.525 137.909 130.746 137.874C128.448 137.765 127.719 137.739 121.891 137.739C116.063 137.739 115.333 137.765 113.044 137.865C111.264 137.9 109.504 138.237 107.837 138.863C106.411 139.415 105.116 140.259 104.034 141.341C102.953 142.422 102.109 143.718 101.556 145.144C100.931 146.81 100.594 148.571 100.559 150.351C100.45 152.649 100.424 153.378 100.424 159.206C100.424 165.034 100.45 165.763 100.55 168.052C100.585 169.832 100.922 171.593 101.548 173.26C102.101 174.686 102.944 175.981 104.026 177.063C105.107 178.144 106.402 178.988 107.829 179.54C109.495 180.165 111.256 180.503 113.036 180.538C115.325 180.639 116.055 180.664 121.883 180.664C127.71 180.664 128.44 180.639 130.729 180.538C132.509 180.503 134.27 180.166 135.936 179.54C137.363 178.989 138.658 178.145 139.74 177.064C140.822 175.982 141.665 174.686 142.217 173.26C142.842 171.593 143.179 169.832 143.215 168.052C143.315 165.763 143.341 165.034 143.341 159.206C143.341 153.378 143.332 152.649 143.231 150.359ZM139.366 167.885C139.352 169.245 139.102 170.593 138.628 171.868C138.27 172.794 137.723 173.634 137.021 174.336C136.319 175.038 135.478 175.585 134.553 175.943C133.277 176.417 131.93 176.666 130.57 176.681C128.306 176.782 127.627 176.807 121.899 176.807C116.172 176.807 115.485 176.782 113.229 176.681C111.868 176.667 110.521 176.418 109.246 175.943C108.314 175.601 107.471 175.054 106.781 174.341C106.07 173.649 105.523 172.807 105.179 171.876C104.705 170.601 104.456 169.253 104.441 167.893C104.34 165.629 104.315 164.95 104.315 159.223C104.315 153.495 104.34 152.808 104.441 150.552C104.455 149.192 104.704 147.844 105.179 146.569C105.521 145.636 106.071 144.792 106.789 144.104C107.481 143.393 108.323 142.846 109.254 142.502C110.529 142.029 111.877 141.779 113.237 141.764C115.501 141.664 116.181 141.639 121.908 141.639C127.643 141.639 128.322 141.664 130.578 141.764C131.938 141.778 133.286 142.028 134.561 142.502C135.493 142.844 136.335 143.391 137.026 144.104C137.737 144.796 138.284 145.639 138.628 146.569C139.102 147.845 139.351 149.192 139.366 150.552C139.467 152.816 139.492 153.495 139.492 159.223C139.492 164.95 139.467 165.621 139.366 167.885Z" fill="white"/>
<path d="M121.891 148.179C119.71 148.179 117.578 148.826 115.765 150.038C113.952 151.249 112.538 152.971 111.704 154.986C110.869 157.001 110.651 159.218 111.076 161.357C111.502 163.496 112.552 165.461 114.094 167.003C115.636 168.545 117.601 169.595 119.74 170.021C121.879 170.446 124.096 170.228 126.111 169.393C128.126 168.559 129.848 167.145 131.059 165.332C132.271 163.519 132.918 161.387 132.918 159.206C132.917 156.282 131.755 153.477 129.687 151.41C127.619 149.342 124.815 148.18 121.891 148.179ZM121.891 166.359C120.476 166.359 119.093 165.939 117.917 165.153C116.741 164.367 115.824 163.25 115.283 161.943C114.741 160.636 114.6 159.198 114.876 157.81C115.152 156.423 115.833 155.148 116.833 154.148C117.834 153.148 119.108 152.467 120.496 152.191C121.883 151.915 123.321 152.056 124.628 152.598C125.935 153.139 127.052 154.056 127.838 155.232C128.624 156.408 129.044 157.791 129.044 159.206C129.043 161.103 128.29 162.922 126.948 164.263C125.607 165.605 123.788 166.358 121.891 166.359Z" fill="white"/>
<path d="M135.928 147.743C135.928 148.252 135.777 148.75 135.494 149.174C135.211 149.597 134.809 149.927 134.339 150.122C133.869 150.317 133.351 150.368 132.852 150.268C132.352 150.169 131.894 149.924 131.533 149.564C131.173 149.204 130.928 148.745 130.829 148.246C130.729 147.746 130.78 147.229 130.975 146.758C131.17 146.288 131.5 145.886 131.923 145.603C132.347 145.32 132.844 145.169 133.354 145.169C134.036 145.169 134.691 145.44 135.174 145.923C135.657 146.406 135.928 147.06 135.928 147.743Z" fill="white"/>
<path d="M128.384 66.8209H132.123V60.3079C130.314 60.1099 128.495 60.0129 126.676 60.0199C121.284 60.0199 117.591 63.4109 117.591 69.6439V75.3789H111.642V82.6599H117.591V100.979H124.885V82.6619H130.594L131.5 75.3809H124.884V70.3649C124.885 68.2609 125.452 66.8209 128.384 66.8209Z" fill="white"/>
<defs>
<linearGradient id="paint0_linear_150_4" x1="413.695" y1="-0.826001" x2="468.027" y2="740.822" gradientUnits="userSpaceOnUse">
<stop stop-color="white"/>
<stop offset="1" stop-color="#94B9FF"/>
</linearGradient>
<linearGradient id="paint1_linear_150_4" x1="518.141" y1="474.887" x2="518.211" y2="509.727" gradientUnits="userSpaceOnUse">
<stop stop-color="white"/>
<stop offset="1" stop-color="#94B9FF"/>
</linearGradient>
</defs>
</svg>
