<svg width="871" height="588" viewBox="0 0 871 588" fill="none" xmlns="http://www.w3.org/2000/svg">
<g clip-path="url(#clip0_50_97)">
<path d="M814.16 519.537H594.065C586.058 519.528 578.381 516.176 572.718 510.217C567.056 504.258 563.871 496.179 563.862 487.752V122.378C563.871 113.951 567.056 105.871 572.718 99.9123C578.381 93.9534 586.057 90.6015 594.065 90.592H814.16C822.167 90.6015 829.844 93.9534 835.506 99.9123C841.169 105.871 844.353 113.951 844.362 122.378V487.752C844.353 496.179 841.169 504.258 835.506 510.217C829.844 516.176 822.167 519.528 814.16 519.537Z" fill="#E6E6E6"/>
<path d="M817.81 109.559H593.65C591.143 109.562 588.74 110.612 586.968 112.477C585.195 114.342 584.198 116.871 584.195 119.509V489.647C584.199 492.285 585.196 494.813 586.969 496.679C588.741 498.544 591.143 499.593 593.65 499.597H817.81C820.316 499.594 822.719 498.545 824.492 496.679C826.264 494.814 827.261 492.285 827.264 489.647V119.509C827.261 116.871 826.264 114.342 824.492 112.477C822.719 110.612 820.316 109.562 817.81 109.559Z" fill="white"/>
<path d="M599.445 90.5921C599.446 89.9474 599.689 89.3293 600.122 88.8735C600.556 88.4176 601.143 88.1612 601.755 88.1604H617.467C618.08 88.1604 618.668 88.4166 619.101 88.8726C619.534 89.3286 619.778 89.9471 619.778 90.5921C619.778 91.237 619.534 91.8555 619.101 92.3115C618.668 92.7675 618.08 93.0237 617.467 93.0237H601.755C601.143 93.0229 600.555 92.7665 600.122 92.3106C599.689 91.8548 599.446 91.2367 599.445 90.5921Z" fill="#E6E6E6"/>
<path d="M625.323 90.5921C625.323 89.9474 625.567 89.3293 626 88.8735C626.433 88.4176 627.021 88.1612 627.633 88.1604H643.345C643.958 88.1604 644.545 88.4166 644.979 88.8726C645.412 89.3286 645.656 89.9471 645.656 90.5921C645.656 91.237 645.412 91.8555 644.979 92.3115C644.545 92.7675 643.958 93.0237 643.345 93.0237H627.633C627.021 93.023 626.433 92.7665 626 92.3107C625.567 91.8548 625.323 91.2367 625.323 90.5921Z" fill="#E6E6E6"/>
<path d="M780.591 90.5921C780.592 89.9474 780.836 89.3293 781.269 88.8735C781.702 88.4176 782.289 88.1612 782.902 88.1604H798.614C799.226 88.1604 799.814 88.4166 800.247 88.8726C800.681 89.3286 800.924 89.9471 800.924 90.5921C800.924 91.237 800.681 91.8555 800.247 92.3115C799.814 92.7675 799.226 93.0237 798.614 93.0237H782.902C782.289 93.023 781.702 92.7665 781.269 92.3107C780.836 91.8548 780.592 91.2367 780.591 90.5921Z" fill="#E6E6E6"/>
<path d="M736.793 491.972C736.793 494.53 736.746 497.078 736.636 499.597H593.65C591.143 499.593 588.741 498.544 586.969 496.678C585.196 494.813 584.199 492.285 584.195 489.647V303.343C626.775 310.583 665.516 333.541 693.477 368.104C721.438 402.667 736.793 446.578 736.793 491.972Z" fill="#F2F2F2"/>
<path d="M731.937 204.677H678.611C676.184 204.677 674.217 206.748 674.217 209.301V215.072C674.217 217.625 676.184 219.696 678.611 219.696H731.937C734.364 219.696 736.331 217.625 736.331 215.072V209.301C736.331 206.748 734.364 204.677 731.937 204.677Z" fill="url(#paint0_linear_50_97)"/>
<path d="M765.829 234.714H644.719C642.292 234.714 640.325 236.785 640.325 239.338V245.109C640.325 247.663 642.292 249.733 644.719 249.733H765.829C768.256 249.733 770.223 247.663 770.223 245.109V239.338C770.223 236.785 768.256 234.714 765.829 234.714Z" fill="#E6E6E6"/>
<path d="M765.829 264.751H644.719C642.292 264.751 640.325 266.822 640.325 269.376V275.146C640.325 277.7 642.292 279.77 644.719 279.77H765.829C768.256 279.77 770.223 277.7 770.223 275.146V269.376C770.223 266.822 768.256 264.751 765.829 264.751Z" fill="#E6E6E6"/>
<path d="M745.091 474.301C744.397 474.335 743.709 474.143 743.122 473.752C742.535 473.361 742.076 472.789 741.808 472.114C741.539 471.439 741.475 470.693 741.623 469.979C741.77 469.264 742.123 468.614 742.634 468.117L742.866 467.145C742.836 467.068 742.805 466.99 742.774 466.912C742.074 465.173 740.902 463.691 739.405 462.65C737.907 461.61 736.151 461.059 734.356 461.066C732.562 461.073 730.81 461.638 729.319 462.69C727.829 463.742 726.667 465.233 725.98 466.978C723.234 473.94 719.737 480.914 718.876 488.275C718.496 491.529 718.656 494.827 719.348 498.024C712.897 483.213 709.547 467.117 709.526 450.824C709.524 446.736 709.74 442.651 710.172 438.588C710.529 435.257 711.024 431.95 711.658 428.666C715.116 410.851 722.54 394.153 733.32 379.944C738.538 376.948 742.757 372.34 745.41 366.743C746.371 364.73 747.051 362.582 747.427 360.365C746.838 360.447 746.24 360.497 745.651 360.538C745.468 360.548 745.275 360.558 745.092 360.569L745.023 360.572C744.376 360.602 743.734 360.435 743.175 360.091C742.617 359.747 742.164 359.24 741.873 358.632C741.581 358.023 741.463 357.339 741.533 356.661C741.602 355.984 741.856 355.342 742.264 354.813C742.518 354.483 742.773 354.154 743.027 353.826C743.413 353.318 743.809 352.82 744.195 352.313C744.239 352.264 744.281 352.214 744.32 352.16C744.764 351.581 745.208 351.013 745.652 350.434C744.841 349.11 743.752 348.002 742.467 347.195C738.019 344.453 731.882 346.352 728.669 350.586C725.447 354.821 724.839 360.761 725.958 366.052C727.059 370.554 728.879 374.826 731.342 378.684C731.101 379.01 730.85 379.324 730.609 379.649C726.199 385.617 722.356 392.025 719.134 398.781C719.917 391.212 718.982 383.555 716.405 376.44C713.794 369.81 708.899 364.226 704.588 358.493C699.41 351.608 688.792 354.613 687.88 363.341C687.871 363.426 687.862 363.51 687.854 363.595C688.494 363.975 689.121 364.378 689.734 364.805C690.505 365.347 691.102 366.121 691.447 367.026C691.792 367.93 691.87 368.924 691.669 369.876C691.469 370.828 691 371.694 690.324 372.361C689.648 373.027 688.796 373.464 687.88 373.612L687.787 373.627C688.015 376.056 688.418 378.463 688.993 380.827C690.658 387.428 693.601 393.595 697.638 398.942C701.674 404.289 706.717 408.701 712.449 411.901C712.826 412.104 713.192 412.307 713.569 412.5C710.332 422.154 708.301 432.211 707.528 442.416C707.091 448.437 707.117 454.485 707.606 460.502L707.577 460.288C706.341 453.598 702.95 447.562 697.976 443.198C690.587 436.811 680.149 434.458 672.178 429.324C671.331 428.752 670.346 428.446 669.34 428.444C668.333 428.441 667.347 428.742 666.497 429.31C665.647 429.878 664.97 430.69 664.544 431.65C664.118 432.61 663.962 433.678 664.095 434.728C664.105 434.803 664.116 434.878 664.127 434.952C665.315 435.462 666.472 436.048 667.591 436.709C668.231 437.089 668.858 437.493 669.471 437.919C670.242 438.461 670.839 439.235 671.184 440.14C671.529 441.045 671.607 442.038 671.406 442.99C671.206 443.942 670.737 444.809 670.061 445.475C669.385 446.142 668.533 446.578 667.617 446.727L667.524 446.742C667.456 446.752 667.398 446.762 667.331 446.772C669.361 451.874 672.21 456.57 675.754 460.654C680.132 465.598 685.423 469.549 691.304 472.264C697.184 474.979 703.529 476.402 709.95 476.445H709.96C711.703 484.416 714.228 492.176 717.496 499.598H744.416C744.513 499.283 744.6 498.958 744.687 498.643C742.195 498.808 739.693 498.651 737.237 498.176C739.235 495.597 741.232 492.997 743.23 490.418C743.274 490.369 743.316 490.319 743.355 490.265C744.368 488.945 745.391 487.635 746.404 486.315L746.405 486.314C746.459 482.267 746.017 478.23 745.092 474.302L745.091 474.301ZM714.263 410.479L714.277 410.459L714.263 410.499V410.479ZM708.3 467.051L708.069 466.503C708.078 466.107 708.078 465.711 708.069 465.305C708.069 465.193 708.049 465.082 708.049 464.97C708.136 465.67 708.213 466.371 708.31 467.072L708.3 467.051Z" fill="#CCCCCC"/>
<path d="M806.605 142.237H604.854C604.418 142.227 604.002 142.037 603.697 141.709C603.392 141.381 603.221 140.939 603.221 140.48C603.221 140.02 603.392 139.579 603.697 139.251C604.002 138.922 604.418 138.733 604.854 138.723H806.605C807.041 138.733 807.456 138.922 807.762 139.251C808.067 139.579 808.238 140.02 808.238 140.48C808.238 140.939 808.067 141.381 807.762 141.709C807.456 142.037 807.041 142.227 806.605 142.237Z" fill="#CACACA"/>
<path d="M615.619 133.641C618.329 133.641 620.526 131.278 620.526 128.362C620.526 125.446 618.329 123.082 615.619 123.082C612.909 123.082 610.711 125.446 610.711 128.362C610.711 131.278 612.909 133.641 615.619 133.641Z" fill="#3F3D56"/>
<path d="M632.571 133.641C635.282 133.641 637.479 131.278 637.479 128.362C637.479 125.446 635.282 123.082 632.571 123.082C629.861 123.082 627.664 125.446 627.664 128.362C627.664 131.278 629.861 133.641 632.571 133.641Z" fill="#3F3D56"/>
<path d="M649.525 133.641C652.235 133.641 654.432 131.278 654.432 128.362C654.432 125.446 652.235 123.082 649.525 123.082C646.814 123.082 644.617 125.446 644.617 128.362C644.617 131.278 646.814 133.641 649.525 133.641Z" fill="#3F3D56"/>
<path d="M798.719 125.122H787.737C787.519 125.126 787.312 125.22 787.159 125.384C787.007 125.548 786.922 125.768 786.922 125.997C786.922 126.226 787.007 126.446 787.159 126.61C787.312 126.773 787.519 126.867 787.737 126.872H798.719C798.937 126.867 799.144 126.773 799.297 126.61C799.449 126.446 799.534 126.226 799.534 125.997C799.534 125.768 799.449 125.548 799.297 125.384C799.144 125.22 798.937 125.126 798.719 125.122Z" fill="#3F3D56"/>
<path d="M798.719 128.407H787.737C787.519 128.411 787.312 128.505 787.159 128.669C787.007 128.833 786.922 129.053 786.922 129.282C786.922 129.511 787.007 129.731 787.159 129.895C787.312 130.058 787.519 130.152 787.737 130.157H798.719C798.937 130.152 799.144 130.058 799.297 129.895C799.449 129.731 799.534 129.511 799.534 129.282C799.534 129.053 799.449 128.833 799.297 128.669C799.144 128.505 798.937 128.411 798.719 128.407Z" fill="#3F3D56"/>
<path d="M798.719 131.687H787.737C787.519 131.692 787.312 131.786 787.159 131.95C787.007 132.113 786.922 132.333 786.922 132.562C786.922 132.792 787.007 133.012 787.159 133.175C787.312 133.339 787.519 133.433 787.737 133.438H798.719C798.937 133.433 799.144 133.339 799.297 133.175C799.449 133.012 799.534 132.792 799.534 132.562C799.534 132.333 799.449 132.113 799.297 131.95C799.144 131.786 798.937 131.692 798.719 131.687Z" fill="#3F3D56"/>
<path d="M471.381 303.482H354.411C352.756 303.485 351.17 304.179 350.002 305.412C348.833 306.645 348.178 308.316 348.179 310.057V504.52H477.628V310.057C477.629 309.193 477.467 308.338 477.153 307.54C476.84 306.742 476.379 306.017 475.799 305.407C475.219 304.796 474.53 304.312 473.772 303.981C473.014 303.651 472.201 303.481 471.381 303.482ZM413.289 413.974C409.631 413.956 406.128 412.418 403.541 409.696C400.955 406.974 399.494 403.287 399.477 399.437V377.008C399.48 373.155 400.937 369.461 403.527 366.737C406.117 364.014 409.628 362.484 413.289 362.484C416.95 362.484 420.462 364.014 423.052 366.737C425.642 369.461 427.098 373.155 427.101 377.008V399.437C427.084 403.287 425.624 406.974 423.037 409.696C420.451 412.418 416.947 413.956 413.289 413.974Z" fill="#E6E6E6"/>
<path d="M347.778 498.3V517.062C347.78 518.034 348.148 518.966 348.801 519.654C349.454 520.341 350.34 520.728 351.263 520.73H474.545C475.468 520.725 476.351 520.337 477.004 519.65C477.657 518.964 478.025 518.033 478.03 517.062V498.3L347.778 498.3Z" fill="#CCCCCC"/>
<path d="M665.072 0H165.072C160.776 0.00719234 156.658 1.80632 153.621 5.00311C150.583 8.1999 148.874 12.5336 148.867 17.0546V372.142C148.871 376.664 150.58 381 153.618 384.197C156.656 387.395 160.776 389.193 165.072 389.197H665.072C669.368 389.193 673.488 387.395 676.526 384.197C679.564 381 681.273 376.664 681.277 372.142V17.0546C681.27 12.5336 679.56 8.1999 676.523 5.00311C673.485 1.80632 669.367 0.00718953 665.072 0Z" fill="#E6E6E6"/>
<path d="M660.898 12.3184H169.25C166.949 12.3236 164.745 13.2889 163.121 15.0023C161.496 16.7157 160.583 19.0375 160.583 21.4581V367.745C160.587 370.162 161.501 372.48 163.126 374.19C164.75 375.899 166.952 376.861 169.25 376.866H660.898C663.195 376.861 665.397 375.899 667.022 374.19C668.646 372.48 669.56 370.162 669.564 367.745V21.4581C669.564 19.0375 668.652 16.7157 667.027 15.0023C665.402 13.2889 663.198 12.3236 660.898 12.3184Z" fill="white"/>
<path d="M669.565 21.4581V367.745C669.561 370.162 668.646 372.48 667.022 374.19C665.397 375.899 663.195 376.861 660.898 376.866H487.532C468.353 358.147 452.619 335.867 441.118 311.143C440.362 309.55 439.641 307.938 438.956 306.307C428.478 282.377 422.133 256.674 420.218 230.402C420.092 228.79 419.984 227.178 419.912 225.548C419.677 221.376 419.569 217.147 419.569 212.9C419.535 184.651 424.604 156.652 434.506 130.396C435.101 128.765 435.731 127.153 436.38 125.541C456.308 76.264 492.318 36.1071 537.909 12.3184H660.898C663.198 12.3236 665.402 13.2889 667.027 15.0023C668.652 16.7157 669.564 19.0375 669.565 21.4581Z" fill="url(#paint1_linear_50_97)"/>
<path d="M636.184 60.0288H176.15C175.672 60.0181 175.216 59.8106 174.882 59.4507C174.547 59.0908 174.359 58.6072 174.359 58.1035C174.359 57.5999 174.547 57.1163 174.882 56.7564C175.216 56.3965 175.672 56.189 176.15 56.1782H636.184C636.662 56.189 637.118 56.3965 637.452 56.7564C637.787 57.1163 637.975 57.5999 637.975 58.1035C637.975 58.6072 637.787 59.0908 637.452 59.4507C637.118 59.8106 636.662 60.0181 636.184 60.0288Z" fill="#CACACA"/>
<path d="M207.465 46.348C213.387 46.348 218.187 41.1838 218.187 34.8133C218.187 28.4428 213.387 23.2786 207.465 23.2786C201.544 23.2786 196.744 28.4428 196.744 34.8133C196.744 41.1838 201.544 46.348 207.465 46.348Z" fill="#3F3D56"/>
<path d="M244.503 46.348C250.424 46.348 255.224 41.1838 255.224 34.8133C255.224 28.4428 250.424 23.2786 244.503 23.2786C238.581 23.2786 233.781 28.4428 233.781 34.8133C233.781 41.1838 238.581 46.348 244.503 46.348Z" fill="#3F3D56"/>
<path d="M281.54 46.348C287.461 46.348 292.261 41.1838 292.261 34.8133C292.261 28.4428 287.461 23.2786 281.54 23.2786C275.618 23.2786 270.818 28.4428 270.818 34.8133C270.818 41.1838 275.618 46.348 281.54 46.348Z" fill="#3F3D56"/>
<path d="M613.884 26.1375H587.575C587.053 26.1483 586.557 26.374 586.192 26.7659C585.826 27.1579 585.622 27.685 585.622 28.234C585.622 28.7829 585.826 29.31 586.192 29.702C586.557 30.094 587.053 30.3196 587.575 30.3305H613.884C614.406 30.3196 614.902 30.094 615.268 29.702C615.633 29.31 615.837 28.7829 615.837 28.234C615.837 27.685 615.633 27.1579 615.268 26.7659C614.902 26.374 614.406 26.1483 613.884 26.1375Z" fill="#3F3D56"/>
<path d="M613.884 34.0071H587.575C587.053 34.0179 586.557 34.2436 586.192 34.6356C585.826 35.0276 585.622 35.5546 585.622 36.1036C585.622 36.6525 585.826 37.1796 586.192 37.5716C586.557 37.9636 587.053 38.1892 587.575 38.2001H613.884C614.406 38.1892 614.902 37.9636 615.268 37.5716C615.633 37.1796 615.837 36.6525 615.837 36.1036C615.837 35.5546 615.633 35.0276 615.268 34.6356C614.902 34.2436 614.406 34.0179 613.884 34.0071Z" fill="#3F3D56"/>
<path d="M613.884 41.8665H587.575C587.053 41.8773 586.557 42.103 586.192 42.495C585.826 42.887 585.622 43.414 585.622 43.963C585.622 44.5119 585.826 45.039 586.192 45.431C586.557 45.823 587.053 46.0486 587.575 46.0595H613.884C614.406 46.0486 614.902 45.823 615.268 45.431C615.633 45.039 615.837 44.5119 615.837 43.963C615.837 43.414 615.633 42.887 615.268 42.495C614.902 42.103 614.406 41.8773 613.884 41.8665Z" fill="#3F3D56"/>
<path d="M317.007 172.508H252.675C250.248 172.508 248.281 174.579 248.281 177.132V184.339C248.281 186.893 250.248 188.964 252.675 188.964H317.007C319.433 188.964 321.4 186.893 321.4 184.339V177.132C321.4 174.579 319.433 172.508 317.007 172.508Z" fill="url(#paint2_linear_50_97)"/>
<path d="M354.141 205.419H215.54C213.113 205.419 211.146 207.489 211.146 210.043V217.25C211.146 219.804 213.113 221.874 215.54 221.874H354.141C356.568 221.874 358.535 219.804 358.535 217.25V210.043C358.535 207.489 356.568 205.419 354.141 205.419Z" fill="#E6E6E6"/>
<path d="M354.141 238.329H215.54C213.113 238.329 211.146 240.399 211.146 242.953V250.16C211.146 252.714 213.113 254.784 215.54 254.784H354.141C356.568 254.784 358.535 252.714 358.535 250.16V242.953C358.535 240.399 356.568 238.329 354.141 238.329Z" fill="#E6E6E6"/>
<path d="M223.176 357.012C223.187 363.79 222.04 370.515 219.789 376.866H169.25C166.952 376.862 164.75 375.899 163.126 374.19C161.501 372.48 160.587 370.163 160.583 367.745V300.847C163.407 300.366 166.263 300.125 169.123 300.126C176.222 300.126 183.251 301.597 189.809 304.455C196.367 307.314 202.326 311.504 207.346 316.787C212.365 322.069 216.347 328.34 219.063 335.242C221.779 342.144 223.177 349.542 223.176 357.012V357.012Z" fill="url(#paint3_linear_50_97)"/>
<path opacity="0.2" d="M670.015 130.395V125.541H592.701V69.2805H588.107V125.541H499.496V69.2805H494.901V125.541H436.38C435.731 127.153 435.101 128.765 434.506 130.396H494.901V225.548H419.912C419.984 227.178 420.092 228.79 420.218 230.402H494.901V306.307H438.956C439.641 307.938 440.362 309.55 441.119 311.143H494.901V374.95H499.496V311.143H588.107V374.95H592.701V311.143H670.015V306.307H592.701V306.307C592.701 296.339 594.567 286.469 598.191 277.259C601.816 268.05 607.129 259.682 613.826 252.634C620.524 245.585 628.474 239.994 637.225 236.18C645.976 232.365 655.354 230.402 664.826 230.402H670.015V225.547H592.701V130.395H670.015ZM588.107 306.307H499.496V230.402H588.107V306.307ZM588.107 225.547H499.496V223.651C499.496 198.918 508.831 175.198 525.449 157.709C542.067 140.221 564.605 130.395 588.107 130.395H588.107V225.547Z" fill="black"/>
<path d="M607.765 340.939C606.779 340.987 605.803 340.715 604.969 340.159C604.135 339.603 603.483 338.791 603.102 337.832C602.721 336.874 602.63 335.815 602.84 334.8C603.05 333.785 603.551 332.862 604.276 332.157C604.397 331.649 604.484 331.284 604.606 330.776C604.562 330.666 604.519 330.555 604.475 330.445C600.042 319.321 585.019 319.398 580.624 330.538C576.723 340.426 571.757 350.331 570.534 360.785C569.995 365.406 570.222 370.091 571.205 374.63C562.043 353.596 557.286 330.735 557.255 307.597C557.253 301.79 557.56 295.988 558.173 290.218C558.68 285.488 559.384 280.791 560.284 276.128C565.194 250.826 575.738 227.111 591.048 206.931C598.458 202.676 604.451 196.132 608.219 188.182C609.584 185.325 610.549 182.274 611.083 179.125C610.247 179.241 609.397 179.313 608.562 179.371C608.301 179.385 608.027 179.399 607.767 179.414L607.668 179.418C606.75 179.462 605.839 179.225 605.045 178.736C604.251 178.247 603.609 177.527 603.195 176.663C602.781 175.799 602.613 174.827 602.712 173.865C602.81 172.903 603.171 171.991 603.75 171.239C604.111 170.772 604.473 170.305 604.834 169.838C605.382 169.117 605.944 168.41 606.492 167.689C606.555 167.62 606.615 167.548 606.67 167.472C607.301 166.65 607.931 165.843 608.561 165.021C607.411 163.141 605.863 161.567 604.039 160.42C597.722 156.526 589.006 159.223 584.443 165.237C579.866 171.251 579.003 179.688 580.592 187.202C581.949 193.634 584.909 199.533 588.239 205.143C587.896 205.604 587.54 206.051 587.197 206.513C580.935 214.988 575.476 224.088 570.901 233.684C572.013 222.934 570.685 212.06 567.026 201.955C563.316 192.539 556.364 184.608 550.242 176.467C542.888 166.689 527.809 170.956 526.513 183.352C526.501 183.472 526.488 183.592 526.476 183.712C527.386 184.252 528.276 184.825 529.147 185.431C530.241 186.2 531.089 187.299 531.579 188.584C532.07 189.869 532.18 191.281 531.895 192.633C531.61 193.985 530.944 195.215 529.984 196.162C529.024 197.108 527.814 197.728 526.514 197.939L526.381 197.961C526.705 201.41 527.277 204.828 528.093 208.186C530.459 217.56 534.639 226.318 540.372 233.912C546.104 241.506 553.266 247.772 561.407 252.317C561.942 252.606 562.462 252.894 562.997 253.168C558.399 266.879 555.516 281.161 554.418 295.655C553.797 304.206 553.834 312.796 554.528 321.341L554.487 321.038C552.733 311.536 547.916 302.963 540.852 296.766C530.359 287.694 515.534 284.354 504.214 277.062C498.765 273.552 491.782 278.088 492.733 284.737C492.748 284.843 492.764 284.949 492.779 285.055C494.467 285.778 496.11 286.612 497.699 287.55C498.608 288.09 499.498 288.663 500.369 289.269C501.463 290.038 502.311 291.138 502.801 292.423C503.292 293.708 503.402 295.119 503.117 296.471C502.833 297.823 502.167 299.053 501.206 300C500.246 300.947 499.037 301.566 497.736 301.777L497.603 301.799C497.507 301.813 497.425 301.828 497.329 301.842C500.212 309.088 504.259 315.757 509.292 321.557C515.51 328.578 523.024 334.189 531.376 338.046C539.727 341.902 548.738 343.922 557.858 343.983H557.872C560.347 355.305 563.934 366.325 568.574 376.865H606.807C606.944 376.418 607.068 375.957 607.191 375.51C603.652 375.744 600.099 375.521 596.612 374.846C599.448 371.183 602.285 367.491 605.122 363.828C605.185 363.759 605.244 363.687 605.3 363.612C606.739 361.737 608.191 359.876 609.63 358.002L609.631 357.999C609.708 352.252 609.081 346.519 607.767 340.94L607.765 340.939ZM563.983 250.298L564.004 250.269L563.983 250.327V250.298ZM555.515 330.643L555.186 329.864C555.199 329.302 555.199 328.739 555.186 328.162C555.186 328.004 555.158 327.845 555.158 327.686C555.282 328.682 555.391 329.677 555.528 330.672L555.515 330.643Z" fill="#2F2E41"/>
<path d="M267.312 246.833V192.755C267.312 184.454 264.179 176.493 258.601 170.623C253.024 164.753 245.46 161.456 237.572 161.456H128.707C120.819 161.456 113.255 164.753 107.678 170.623C102.1 176.493 98.967 184.454 98.967 192.755V489.431C98.967 497.732 102.1 505.693 107.678 511.563C113.255 517.432 120.819 520.73 128.707 520.73H237.572C241.478 520.73 245.345 519.92 248.953 518.348C252.561 516.775 255.84 514.469 258.601 511.563C261.363 508.656 263.554 505.206 265.048 501.409C266.543 497.611 267.312 493.541 267.312 489.431V285.326C267.81 285.326 268.287 285.118 268.638 284.748C268.99 284.378 269.188 283.876 269.188 283.352V248.807C269.188 248.283 268.99 247.781 268.638 247.411C268.287 247.041 267.81 246.833 267.312 246.833Z" fill="#E6E6E6"/>
<path d="M260.983 192.969V489.217C260.984 495.371 258.677 501.276 254.565 505.65C250.452 510.024 244.866 512.514 239.019 512.578C238.938 512.587 238.857 512.59 238.776 512.589H129.381C123.491 512.588 117.843 510.125 113.678 505.743C109.514 501.36 107.174 495.416 107.174 489.217V192.969C107.174 186.771 109.514 180.827 113.678 176.444C117.843 172.061 123.491 169.599 129.381 169.598H142.656C142.004 171.285 141.755 173.115 141.932 174.926C142.109 176.738 142.707 178.476 143.672 179.987C144.637 181.499 145.94 182.738 147.467 183.595C148.994 184.452 150.698 184.901 152.428 184.902H214.797C216.525 184.897 218.227 184.445 219.751 183.587C221.276 182.729 222.577 181.49 223.541 179.979C224.504 178.469 225.101 176.732 225.279 174.922C225.456 173.112 225.209 171.284 224.558 169.598H238.776C244.665 169.599 250.313 172.061 254.478 176.444C258.643 180.827 260.982 186.771 260.983 192.969Z" fill="white"/>
<path d="M239.292 503.445C239.292 506.514 239.201 509.558 239.019 512.578C238.938 512.587 238.857 512.59 238.776 512.589H129.381C123.491 512.588 117.843 510.125 113.678 505.743C109.514 501.36 107.174 495.416 107.174 489.217V357.196C142.816 359.088 176.405 375.322 200.996 402.542C225.586 429.762 239.296 465.886 239.292 503.445Z" fill="#F2F2F2"/>
<path d="M99.5687 277.086C98.8975 277.085 98.2541 276.804 97.7795 276.305C97.3049 275.805 97.0379 275.128 97.0371 274.422V256.304C97.0371 255.598 97.3038 254.92 97.7786 254.42C98.2534 253.921 98.8973 253.64 99.5687 253.64C100.24 253.64 100.884 253.921 101.359 254.42C101.834 254.92 102.1 255.598 102.1 256.304V274.422C102.1 275.128 101.833 275.805 101.358 276.305C100.883 276.804 100.24 277.085 99.5687 277.086Z" fill="#E6E6E6"/>
<path d="M197.51 262.62H170.646C168.22 262.62 166.252 264.69 166.252 267.244V274.451C166.252 277.005 168.22 279.075 170.646 279.075H197.51C199.937 279.075 201.904 277.005 201.904 274.451V267.244C201.904 264.69 199.937 262.62 197.51 262.62Z" fill="url(#paint4_linear_50_97)"/>
<path d="M234.645 295.531H133.511C131.085 295.531 129.118 297.601 129.118 300.155V307.362C129.118 309.916 131.085 311.986 133.511 311.986H234.645C237.072 311.986 239.039 309.916 239.039 307.362V300.155C239.039 297.601 237.072 295.531 234.645 295.531Z" fill="#E6E6E6"/>
<path d="M234.645 328.441H133.511C131.085 328.441 129.118 330.512 129.118 333.066V340.273C129.118 342.826 131.085 344.897 133.511 344.897H234.645C237.072 344.897 239.039 342.826 239.039 340.273V333.066C239.039 330.512 237.072 328.441 234.645 328.441Z" fill="#E6E6E6"/>
<path d="M210.311 495.73C209.848 495.752 209.39 495.624 208.999 495.363C208.607 495.103 208.301 494.722 208.123 494.272C207.944 493.822 207.901 493.325 207.999 492.849C208.098 492.372 208.333 491.939 208.673 491.608L208.828 490.961C208.808 490.909 208.787 490.857 208.767 490.805C208.301 489.646 207.519 488.658 206.521 487.965C205.523 487.272 204.353 486.904 203.157 486.909C201.961 486.914 200.793 487.29 199.8 487.991C198.807 488.692 198.032 489.686 197.574 490.849C195.744 495.489 193.413 500.137 192.839 505.043C192.587 507.211 192.693 509.409 193.154 511.54C188.855 501.669 186.622 490.941 186.608 480.083C186.607 477.358 186.751 474.636 187.039 471.928C187.277 469.708 187.607 467.504 188.029 465.316C190.334 453.443 195.281 442.314 202.466 432.844C205.943 430.847 208.756 427.777 210.524 424.046C211.164 422.705 211.617 421.273 211.868 419.796C211.475 419.85 211.077 419.884 210.685 419.911C210.562 419.918 210.434 419.924 210.312 419.931L210.265 419.933C209.834 419.954 209.407 419.842 209.034 419.613C208.662 419.384 208.36 419.046 208.166 418.64C207.972 418.235 207.893 417.779 207.939 417.327C207.986 416.876 208.155 416.448 208.427 416.095C208.596 415.876 208.766 415.656 208.935 415.437C209.193 415.099 209.456 414.767 209.713 414.429C209.743 414.397 209.771 414.363 209.797 414.327C210.093 413.942 210.389 413.563 210.685 413.177C210.145 412.295 209.418 411.556 208.562 411.018C205.598 409.191 201.508 410.456 199.366 413.278C197.219 416.1 196.814 420.06 197.559 423.586C198.293 426.586 199.506 429.433 201.148 432.005C200.987 432.221 200.82 432.431 200.659 432.648C197.72 436.625 195.159 440.895 193.012 445.398C193.534 440.354 192.91 435.251 191.193 430.509C189.453 426.09 186.19 422.368 183.317 418.548C182.557 417.522 181.525 416.756 180.352 416.347C179.178 415.938 177.916 415.904 176.724 416.25C175.532 416.595 174.465 417.305 173.656 418.289C172.848 419.274 172.335 420.488 172.182 421.779C172.176 421.835 172.17 421.892 172.165 421.948C172.591 422.201 173.009 422.47 173.418 422.755C173.931 423.116 174.329 423.632 174.559 424.235C174.789 424.838 174.841 425.5 174.708 426.134C174.574 426.769 174.261 427.346 173.811 427.79C173.36 428.235 172.793 428.525 172.182 428.624L172.12 428.634C172.272 430.253 172.541 431.857 172.924 433.433C174.034 437.832 175.995 441.942 178.685 445.505C181.375 449.069 184.736 452.009 188.557 454.142C188.807 454.278 189.052 454.413 189.303 454.541C187.145 460.976 185.792 467.678 185.277 474.479C184.985 478.492 185.003 482.523 185.328 486.533L185.309 486.391C184.486 481.932 182.226 477.909 178.911 475C173.987 470.743 167.03 469.176 161.718 465.754C161.153 465.373 160.497 465.169 159.826 465.167C159.155 465.166 158.497 465.366 157.931 465.744C157.365 466.123 156.913 466.664 156.629 467.304C156.346 467.944 156.242 468.656 156.33 469.356L156.352 469.505C157.144 469.844 157.915 470.235 158.66 470.676C159.087 470.929 159.505 471.198 159.913 471.483C160.427 471.844 160.825 472.359 161.055 472.962C161.285 473.565 161.337 474.228 161.203 474.862C161.07 475.497 160.757 476.074 160.306 476.518C159.856 476.963 159.288 477.253 158.678 477.352L158.615 477.362C158.57 477.369 158.532 477.376 158.487 477.383C159.84 480.783 161.739 483.912 164.101 486.634C167.018 489.929 170.545 492.562 174.464 494.372C178.383 496.181 182.611 497.129 186.891 497.158H186.897C188.059 502.471 189.742 507.642 191.92 512.589H209.861C209.926 512.379 209.984 512.162 210.041 511.952C208.381 512.062 206.713 511.958 205.077 511.641C206.408 509.922 207.739 508.189 209.07 506.47C209.1 506.438 209.128 506.404 209.154 506.369C209.829 505.489 210.511 504.616 211.186 503.736L211.186 503.735C211.222 501.038 210.928 498.348 210.311 495.73L210.311 495.73ZM189.765 453.195L189.775 453.181L189.765 453.208V453.195ZM185.791 490.898L185.637 490.532C185.643 490.268 185.643 490.005 185.637 489.734C185.637 489.659 185.624 489.585 185.624 489.51C185.682 489.977 185.733 490.444 185.798 490.911L185.791 490.898Z" fill="#CCCCCC"/>
<path d="M99.0624 241.917C98.3912 241.917 97.7477 241.636 97.2731 241.136C96.7985 240.637 96.5316 239.96 96.5308 239.253V221.136C96.5308 220.429 96.7975 219.752 97.2723 219.252C97.747 218.752 98.3909 218.472 99.0624 218.472C99.7338 218.472 100.378 218.752 100.852 219.252C101.327 219.752 101.594 220.429 101.594 221.136V239.253C101.593 239.96 101.326 240.637 100.852 241.136C100.377 241.636 99.7335 241.917 99.0624 241.917Z" fill="#E6E6E6"/>
<path d="M166.403 172.646C166.403 171.939 166.67 171.262 167.145 170.763C167.62 170.263 168.263 169.982 168.934 169.981H186.149C186.82 169.981 187.464 170.262 187.939 170.762C188.414 171.261 188.681 171.939 188.681 172.646C188.681 173.352 188.414 174.03 187.939 174.53C187.464 175.029 186.82 175.31 186.149 175.31H168.934C168.263 175.309 167.62 175.028 167.145 174.529C166.67 174.029 166.403 173.352 166.403 172.646Z" fill="white"/>
<path d="M99.5687 307.992C98.8975 307.991 98.2541 307.71 97.7795 307.21C97.3049 306.711 97.0379 306.034 97.0371 305.327V287.21C97.0371 286.504 97.3038 285.826 97.7786 285.326C98.2534 284.827 98.8973 284.546 99.5687 284.546C100.24 284.546 100.884 284.827 101.359 285.326C101.834 285.826 102.1 286.504 102.1 287.21V305.327C102.1 306.034 101.833 306.711 101.358 307.21C100.883 307.71 100.24 307.991 99.5687 307.992Z" fill="#E6E6E6"/>
<path d="M195.769 175.31C197.167 175.31 198.301 174.117 198.301 172.646C198.301 171.174 197.167 169.981 195.769 169.981C194.371 169.981 193.238 171.174 193.238 172.646C193.238 174.117 194.371 175.31 195.769 175.31Z" fill="white"/>
<path d="M869.794 520.723L1.2059 521.05C0.88673 521.049 0.580952 520.915 0.355588 520.677C0.130224 520.44 0.00366211 520.117 0.00366211 519.781C0.00366211 519.446 0.130224 519.123 0.355588 518.886C0.580952 518.648 0.88673 518.514 1.2059 518.513L869.794 518.185C870.114 518.185 870.421 518.319 870.647 518.557C870.873 518.795 871 519.117 871 519.454C871 519.791 870.873 520.113 870.647 520.351C870.421 520.589 870.114 520.723 869.794 520.723Z" fill="#CACACA"/>
<path opacity="0.2" d="M327.938 285.583L325.171 303.763L343.905 311.895L327.938 285.583Z" fill="black"/>
<path opacity="0.2" d="M316.077 320.539C320.958 326.488 327.58 330.561 334.901 332.118C342.222 333.676 349.827 332.629 356.521 329.142L360.513 327.063L316.077 320.539Z" fill="black"/>
<path d="M447.612 559.86L448.1 548.316C453.186 545.455 458.858 543.944 464.624 543.914C456.688 550.742 457.68 563.905 452.299 573.088C450.6 575.938 448.314 578.35 445.609 580.144C442.904 581.938 439.85 583.068 436.674 583.451L430.032 587.73C429.121 582.384 429.322 576.893 430.621 571.636C431.921 566.379 434.287 561.481 437.558 557.279C439.416 554.941 441.545 552.859 443.897 551.081C445.488 555.495 447.612 559.86 447.612 559.86Z" fill="#F2F2F2"/>
<path d="M463.713 588H232.445C232.126 587.999 231.82 587.865 231.595 587.627C231.369 587.389 231.243 587.067 231.243 586.731C231.243 586.395 231.369 586.073 231.595 585.835C231.82 585.597 232.126 585.463 232.445 585.462H463.713C463.872 585.461 464.029 585.494 464.175 585.557C464.322 585.621 464.456 585.714 464.568 585.832C464.68 585.95 464.769 586.09 464.83 586.244C464.891 586.399 464.922 586.564 464.922 586.731C464.922 586.898 464.891 587.063 464.83 587.217C464.769 587.371 464.68 587.512 464.568 587.629C464.456 587.747 464.322 587.841 464.175 587.904C464.029 587.968 463.872 588 463.713 588Z" fill="#CACACA"/>
</g>
<defs>
<linearGradient id="paint0_linear_50_97" x1="659.31" y1="212.186" x2="736.331" y2="212.186" gradientUnits="userSpaceOnUse">
<stop stop-color="#87E6DF"/>
<stop offset="1" stop-color="#8CDAA8"/>
</linearGradient>
<linearGradient id="paint1_linear_50_97" x1="359.57" y1="194.592" x2="669.565" y2="194.592" gradientUnits="userSpaceOnUse">
<stop stop-color="#87E6DF"/>
<stop offset="1" stop-color="#8CDAA8"/>
</linearGradient>
<linearGradient id="paint2_linear_50_97" x1="230.733" y1="180.736" x2="321.4" y2="180.736" gradientUnits="userSpaceOnUse">
<stop stop-color="#87E6DF"/>
<stop offset="1" stop-color="#8CDAA8"/>
</linearGradient>
<linearGradient id="paint3_linear_50_97" x1="145.561" y1="338.496" x2="223.176" y2="338.496" gradientUnits="userSpaceOnUse">
<stop stop-color="#87E6DF"/>
<stop offset="1" stop-color="#8CDAA8"/>
</linearGradient>
<linearGradient id="paint4_linear_50_97" x1="157.696" y1="270.848" x2="201.904" y2="270.848" gradientUnits="userSpaceOnUse">
<stop stop-color="#87E6DF"/>
<stop offset="1" stop-color="#8CDAA8"/>
</linearGradient>
<clipPath id="clip0_50_97">
<rect width="871" height="588" fill="white"/>
</clipPath>
</defs>
</svg>
