<svg width="60" height="60" viewBox="0 0 60 60" fill="none" xmlns="http://www.w3.org/2000/svg">
<g filter="url(#filter0_d_160_32)">
<circle cx="29" cy="29" r="25" fill="white"/>
</g>
<path fill-rule="evenodd" clip-rule="evenodd" d="M13.0312 40.75C13.0312 40.377 13.1794 40.0194 13.4431 39.7556C13.7069 39.4919 14.0645 39.3438 14.4375 39.3438H42.5625C42.9355 39.3438 43.2931 39.4919 43.5569 39.7556C43.8206 40.0194 43.9688 40.377 43.9688 40.75C43.9688 41.123 43.8206 41.4806 43.5569 41.7444C43.2931 42.0081 42.9355 42.1562 42.5625 42.1562H14.4375C14.0645 42.1562 13.7069 42.0081 13.4431 41.7444C13.1794 41.4806 13.0312 41.123 13.0312 40.75ZM13.0312 29.5C13.0312 29.127 13.1794 28.7694 13.4431 28.5056C13.7069 28.2419 14.0645 28.0938 14.4375 28.0938H42.5625C42.9355 28.0938 43.2931 28.2419 43.5569 28.5056C43.8206 28.7694 43.9688 29.127 43.9688 29.5C43.9688 29.873 43.8206 30.2306 43.5569 30.4944C43.2931 30.7581 42.9355 30.9062 42.5625 30.9062H14.4375C14.0645 30.9062 13.7069 30.7581 13.4431 30.4944C13.1794 30.2306 13.0312 29.873 13.0312 29.5ZM13.0312 18.25C13.0312 17.877 13.1794 17.5194 13.4431 17.2556C13.7069 16.9919 14.0645 16.8438 14.4375 16.8438H42.5625C42.9355 16.8438 43.2931 16.9919 43.5569 17.2556C43.8206 17.5194 43.9688 17.877 43.9688 18.25C43.9688 18.623 43.8206 18.9806 43.5569 19.2444C43.2931 19.5081 42.9355 19.6562 42.5625 19.6562H14.4375C14.0645 19.6562 13.7069 19.5081 13.4431 19.2444C13.1794 18.9806 13.0312 18.623 13.0312 18.25V18.25Z" fill="#434041"/>
<defs>
<filter id="filter0_d_160_32" x="0" y="0" width="60" height="60" filterUnits="userSpaceOnUse" color-interpolation-filters="sRGB">
<feFlood flood-opacity="0" result="BackgroundImageFix"/>
<feColorMatrix in="SourceAlpha" type="matrix" values="0 0 0 0 0 0 0 0 0 0 0 0 0 0 0 0 0 0 127 0" result="hardAlpha"/>
<feOffset dx="1" dy="1"/>
<feGaussianBlur stdDeviation="2.5"/>
<feComposite in2="hardAlpha" operator="out"/>
<feColorMatrix type="matrix" values="0 0 0 0 0 0 0 0 0 0 0 0 0 0 0 0 0 0 0.25 0"/>
<feBlend mode="normal" in2="BackgroundImageFix" result="effect1_dropShadow_160_32"/>
<feBlend mode="normal" in="SourceGraphic" in2="effect1_dropShadow_160_32" result="shape"/>
</filter>
</defs>
</svg>
